<?xml version="1.0" encoding="UTF-8"?>
<!DOCTYPE svg PUBLIC "-//W3C//DTD SVG 1.1//EN" "http://www.w3.org/Graphics/SVG/1.1/DTD/svg11.dtd">
<!-- Creator: CorelDRAW X8 -->
<svg xmlns="http://www.w3.org/2000/svg" xml:space="preserve" width="800px" height="960px" version="1.1" style="shape-rendering:geometricPrecision; text-rendering:geometricPrecision; image-rendering:optimizeQuality; fill-rule:evenodd; clip-rule:evenodd"
viewBox="0 0 800 960"
 xmlns:xlink="http://www.w3.org/1999/xlink">
 <defs>
  <style type="text/css">
   <![CDATA[
    .fil0 {fill:#8C8D94}
   ]]>
  </style>
 </defs>
 <g id="Слой_x0020_1">
  <metadata id="CorelCorpID_0Corel-Layer"/>
  <path class="fil0" d="M741 8l2 0 0 3 1 0 0 3 1 0 0 4 2 0 0 3 1 0 0 3 2 0 0 5 1 0 0 6 1 0 0 3 2 0 0 4 1 0 0 23 -1 0 0 5 -2 0 0 2 -1 0 0 4 -1 0 0 3 -2 0 0 3 -1 0 0 1 -2 0 0 2 -1 0 0 3 -1 0 0 1 -2 0 0 1 -1 0 0 2 -1 0 0 3 -2 0 0 1 -1 0 0 1 -2 0 0 2 -1 0 0 1 -1 0 0 1 -3 0 0 2 -2 0 0 1 -1 0 0 2 -1 0 0 1 -3 0 0 1 -2 0 0 2 -3 0 0 1 -1 0 0 2 -3 0 0 1 -1 0 0 1 -3 0 0 2 -1 0 0 1 -3 0 0 1 -4 0 0 2 -3 0 0 1 -3 0 0 2 -3 0 0 1 -4 0 0 1 -3 0 0 2 -4 0 0 1 -4 0 0 2 -5 0 0 1 -3 0 0 -1 -3 0 0 -2 -1 0 0 -1 -2 0 0 -2 -3 0 0 -1 -1 0 0 -1 -14 0 0 1 -4 0 0 1 -4 0 0 2 -3 0 0 1 -4 0 0 2 -3 0 0 1 -3 0 0 1 -5 0 0 2 -3 0 0 1 -3 0 0 2 -3 0 0 1 -4 0 0 2 -3 0 0 1 -4 0 0 1 -7 0 0 2 -33 0 0 1 -7 0 0 2 -10 0 0 1 -6 0 0 1 -2 0 0 2 -3 0 0 1 -1 0 0 2 -3 0 0 1 -2 0 0 1 -1 0 0 2 -3 0 0 1 -29 0 0 -1 -4 0 0 -2 -4 0 0 -1 -3 0 0 -1 -3 0 0 -2 -3 0 0 -1 -3 0 0 -2 -1 0 0 -1 -2 0 0 -1 -1 0 0 -2 -3 0 0 -1 -1 0 0 -3 -3 0 0 -1 -1 0 0 -2 -2 0 0 -3 -1 0 0 -3 -1 0 0 -2 -2 0 0 -3 -1 0 0 -4 -2 0 0 -28 2 0 0 -4 1 0 0 -6 2 0 0 -4 1 0 0 -6 1 0 0 -4 2 0 0 -2 1 0 0 -3 2 0 0 -4 -6 0 0 1 -3 0 0 1 -1 0 0 2 -2 0 0 1 -2 0 0 2 -2 0 0 1 -1 0 0 1 -2 0 0 2 -1 0 0 1 -1 0 0 1 -2 0 0 2 -1 0 0 1 -1 0 0 2 -2 0 0 2 -1 0 0 2 -2 0 0 1 -1 0 0 3 -1 0 0 1 -2 0 0 3 -1 0 0 4 -2 0 0 3 -1 0 0 4 -1 0 0 3 -2 0 0 4 -1 0 0 7 -2 0 0 30 2 0 0 5 1 0 0 3 2 0 0 4 1 0 0 3 1 0 0 3 2 0 0 2 1 0 0 2 2 0 0 3 1 0 0 1 1 0 0 3 2 0 0 1 1 0 0 2 2 0 0 1 1 0 0 1 1 0 0 3 2 0 0 1 1 0 0 2 3 0 0 1 1 0 0 2 2 0 0 1 1 0 0 1 3 0 0 2 1 0 0 1 2 0 0 2 2 0 0 1 3 0 0 1 3 0 0 2 1 0 0 1 4 0 0 2 5 0 0 1 4 0 0 1 4 0 0 2 3 0 0 1 8 0 0 1 2 0 0 5 -2 0 0 2 -1 0 0 3 -1 0 0 3 -3 0 0 1 -2 0 0 3 -1 0 0 2 -1 0 0 1 -2 0 0 1 -3 0 0 2 -1 0 0 1 -9 0 0 1 -6 0 0 2 -5 0 0 1 -2 0 0 2 -2 0 0 1 -1 0 0 1 -2 0 0 2 -1 0 0 1 -1 0 0 2 -2 0 0 2 -1 0 0 2 -2 0 0 1 -1 0 0 3 -1 0 0 1 -2 0 0 5 -1 0 0 4 1 0 0 3 2 0 0 3 1 0 0 1 1 0 0 1 2 0 0 2 4 0 0 1 1 0 0 10 -1 0 0 3 -1 0 0 8 -2 0 0 11 2 0 0 1 1 0 0 2 1 0 0 1 2 0 0 2 3 0 0 1 1 0 0 1 1 0 0 2 2 0 0 1 1 0 0 2 2 0 0 1 1 0 0 1 1 0 0 2 7 0 0 -2 4 0 0 -1 9 0 0 -1 10 0 0 1 1 0 0 1 4 0 0 2 3 0 0 1 2 0 0 1 2 0 0 2 3 0 0 1 6 0 0 -1 2 0 0 -2 3 0 0 -1 3 0 0 -1 12 0 0 1 2 0 0 1 3 0 0 2 1 0 0 1 1 0 0 2 3 0 0 1 2 0 0 1 1 0 0 3 1 0 0 2 2 0 0 2 1 0 0 2 2 0 0 3 1 0 0 1 1 0 0 3 2 0 0 1 1 0 0 3 1 0 0 4 2 0 0 3 1 0 0 3 2 0 0 5 1 0 0 2 1 0 0 5 2 0 0 3 1 0 0 -8 -1 0 0 -7 -2 0 0 -7 -1 0 0 -5 -1 0 0 -4 -2 0 0 -2 -1 0 0 -2 3 0 0 3 1 0 0 3 1 0 0 2 2 0 0 3 1 0 0 3 2 0 0 3 1 0 0 4 1 0 0 4 2 0 0 4 1 0 0 6 2 0 0 9 1 0 0 6 1 0 0 6 2 0 0 4 1 0 0 6 1 0 0 3 2 0 0 2 1 0 0 2 2 0 0 2 1 0 0 2 1 0 0 1 2 0 0 2 3 0 0 1 1 0 0 1 3 0 0 2 3 0 0 1 1 0 0 2 -4 0 0 -2 -6 0 0 -1 -1 0 0 -2 -3 0 0 -1 -1 0 0 -1 -2 0 0 -2 -1 0 0 -1 -2 0 0 -2 -1 0 0 -1 -1 0 0 -1 -2 0 0 -2 -1 0 0 -2 -1 0 0 -2 -2 0 0 -3 -1 0 0 9 1 0 0 2 -1 0 0 -1 -2 0 0 -3 -1 0 0 -2 -1 0 0 -3 -2 0 0 -6 -1 0 0 -7 -2 0 0 -7 -1 0 0 -8 -1 0 0 -3 -2 0 0 -4 -1 0 0 -4 -2 0 0 -5 -1 0 0 -2 -1 0 0 -3 -2 0 0 -3 -1 0 0 -3 -1 0 0 -3 -2 0 0 -2 -1 0 0 -2 -2 0 0 -2 -1 0 0 -3 -1 0 0 -2 -2 0 0 -1 -1 0 0 -3 -2 0 0 -1 -1 0 0 -2 -3 0 0 -1 -1 0 0 -1 -6 0 0 -2 -5 0 0 2 -6 0 0 1 -4 0 0 1 -12 0 0 -1 -3 0 0 -1 -3 0 0 -2 -3 0 0 -1 -4 0 0 -2 -6 0 0 2 -2 0 0 1 -8 0 0 2 -1 0 0 1 -3 0 0 1 -3 0 0 2 -2 0 0 1 -3 0 0 2 -3 0 0 1 -1 0 0 1 -3 0 0 2 -3 0 0 1 -3 0 0 2 -1 0 0 1 -3 0 0 1 -4 0 0 2 -1 0 0 1 -3 0 0 1 -1 0 0 2 -3 0 0 1 -2 0 0 2 -2 0 0 1 -3 0 0 1 -2 0 0 2 -2 0 0 1 -2 0 0 2 -3 0 0 1 -2 0 0 1 -2 0 0 2 -2 0 0 1 -2 0 0 2 -3 0 0 1 -1 0 0 1 -1 0 0 2 -2 0 0 1 -1 0 0 2 -2 0 0 1 -2 0 0 2 -2 0 0 1 -3 0 0 1 -1 0 0 2 -1 0 0 1 -2 0 0 2 -2 0 0 1 -2 0 0 1 -5 0 0 2 -5 0 0 1 -4 0 0 1 -5 0 0 2 -8 0 0 1 -5 0 0 2 -4 0 0 1 -4 0 0 1 -7 0 0 2 -5 0 0 1 -2 0 0 2 -5 0 0 1 -5 0 0 1 -3 0 0 2 -7 0 0 1 -16 0 0 -1 -14 0 0 -2 -11 0 0 -1 -41 0 0 1 -7 0 0 2 -4 0 0 1 -3 0 0 2 -5 0 0 1 -5 0 0 1 -7 0 0 2 -19 0 0 1 -6 0 0 1 -5 0 0 2 -4 0 0 1 -4 0 0 2 -6 0 0 1 -6 0 0 1 -4 0 0 2 -5 0 0 1 -7 0 0 2 -6 0 0 1 -7 0 0 1 -6 0 0 2 -20 0 0 -2 -5 0 0 -1 -4 0 0 -1 -3 0 0 -2 -1 0 0 -1 -1 0 0 -2 -3 0 0 -2 -2 0 0 -2 -1 0 0 -1 -1 0 0 -4 -2 0 0 -4 -1 0 0 -12 1 0 0 -4 2 0 0 -4 1 0 0 -1 1 0 0 -3 2 0 0 -1 1 0 0 -3 2 0 0 -2 1 0 0 -1 3 0 0 -1 1 0 0 -2 3 0 0 -1 1 0 0 -2 3 0 0 -1 3 0 0 -2 4 0 0 -1 4 0 0 -1 7 0 0 -2 41 0 0 2 5 0 0 1 9 0 0 1 5 0 0 2 4 0 0 1 3 0 0 2 4 0 0 1 6 0 0 2 3 0 0 1 4 0 0 1 5 0 0 2 6 0 0 1 6 0 0 2 5 0 0 1 4 0 0 1 10 0 0 2 27 0 0 -2 5 0 0 -1 6 0 0 -1 4 0 0 -2 3 0 0 -1 4 0 0 -3 -7 0 0 -1 -3 0 0 -2 2 0 0 -1 2 0 0 -2 5 0 0 -1 2 0 0 -2 3 0 0 -1 3 0 0 -1 3 0 0 -2 2 0 0 -1 2 0 0 -2 3 0 0 -1 2 0 0 -1 3 0 0 -2 3 0 0 -1 1 0 0 -2 3 0 0 -1 1 0 0 -1 3 0 0 -2 3 0 0 -1 1 0 0 -2 3 0 0 -1 3 0 0 -1 3 0 0 -2 4 0 0 -1 1 0 0 -1 4 0 0 -2 3 0 0 -3 -4 0 0 -1 -3 0 0 -1 -7 0 0 -2 -1 0 0 -3 1 0 0 -1 2 0 0 -1 1 0 0 -2 1 0 0 -3 2 0 0 -1 1 0 0 -1 2 0 0 -2 1 0 0 -1 1 0 0 -3 2 0 0 -1 1 0 0 -3 2 0 0 -1 1 0 0 -3 1 0 0 -2 2 0 0 -2 1 0 0 -2 2 0 0 -3 1 0 0 -2 1 0 0 -3 2 0 0 -3 -2 0 0 2 -1 0 0 1 -1 0 0 1 -2 0 0 2 -1 0 0 1 -3 0 0 1 -1 0 0 2 -2 0 0 1 -1 0 0 2 -2 0 0 1 -2 0 0 1 -2 0 0 2 -1 0 0 1 -2 0 0 2 -1 0 0 1 -3 0 0 1 -1 0 0 2 -3 0 0 1 -1 0 0 2 -3 0 0 1 -1 0 0 1 -3 0 0 2 -4 0 0 -3 1 0 0 -3 1 0 0 -3 2 0 0 -4 1 0 0 -3 2 0 0 -2 -3 0 0 1 -2 0 0 1 -2 0 0 2 -3 0 0 1 -1 0 0 2 -3 0 0 1 -4 0 0 1 -3 0 0 2 -3 0 0 1 -3 0 0 2 -5 0 0 1 -4 0 0 1 -3 0 0 2 -6 0 0 1 -4 0 0 -11 1 0 0 -3 2 0 0 -5 -2 0 0 1 -1 0 0 1 -1 0 0 3 -2 0 0 2 -1 0 0 1 -2 0 0 1 -1 0 0 2 -1 0 0 3 -2 0 0 1 -2 0 0 1 -2 0 0 2 -1 0 0 1 -2 0 0 1 -3 0 0 2 -1 0 0 1 -3 0 0 2 -3 0 0 1 -2 0 0 1 -5 0 0 2 -5 0 0 1 -6 0 0 2 -5 0 0 1 -10 0 0 1 -11 0 0 2 -6 0 0 1 -5 0 0 2 -7 0 0 1 -32 0 0 -1 -34 0 0 1 -10 0 0 1 -4 0 0 2 -5 0 0 1 -3 0 0 1 -4 0 0 2 -4 0 0 1 -3 0 0 2 -3 0 0 1 -1 0 0 1 -3 0 0 2 -3 0 0 1 -1 0 0 2 -2 0 0 1 -1 0 0 1 -1 0 0 2 -2 0 0 1 -1 0 0 2 -2 0 0 1 -1 0 0 3 -1 0 0 1 -2 0 0 3 -1 0 0 2 -2 0 0 2 -1 0 0 3 -1 0 0 6 -2 0 0 7 -1 0 0 18 1 0 0 5 2 0 0 3 1 0 0 1 1 0 0 3 2 0 0 3 1 0 0 1 2 0 0 2 1 0 0 3 1 0 0 1 2 0 0 1 1 0 0 2 2 0 0 1 1 0 0 1 3 0 0 2 3 0 0 1 1 0 0 2 1 0 0 1 4 0 0 1 2 0 0 2 3 0 0 1 2 0 0 2 6 0 0 1 7 0 0 1 12 0 0 -1 6 0 0 -1 12 0 0 -2 5 0 0 -1 11 0 0 -2 21 0 0 3 -1 0 0 2 -2 0 0 1 -1 0 0 1 -2 0 0 2 -1 0 0 1 -1 0 0 2 -2 0 0 1 -1 0 0 1 -2 0 0 2 -1 0 0 1 -1 0 0 1 -2 0 0 3 -1 0 0 2 -2 0 0 1 -1 0 0 1 -1 0 0 2 -2 0 0 3 -1 0 0 1 -1 0 0 1 -2 0 0 2 -1 0 0 3 -2 0 0 1 -1 0 0 1 -1 0 0 2 -2 0 0 4 -2 0 0 2 -1 0 0 2 -1 0 0 3 -2 0 0 3 -1 0 0 3 -1 0 0 2 -2 0 0 3 -1 0 0 3 -2 0 0 4 -1 0 0 3 -1 0 0 4 -2 0 0 4 -1 0 0 3 -2 0 0 4 -1 0 0 3 -1 0 0 4 -2 0 0 4 -1 0 0 4 -2 0 0 6 -1 0 0 7 -1 0 0 21 1 0 0 12 1 0 0 10 2 0 0 6 1 0 0 25 -1 0 0 3 -2 0 0 1 -1 0 0 1 -1 0 0 2 -2 0 0 1 -2 0 0 2 -3 0 0 1 -3 0 0 1 -4 0 0 2 -3 0 0 1 -1 0 0 2 -2 0 0 1 -3 0 0 1 -1 0 0 2 -1 0 0 3 -2 0 0 1 -1 0 0 3 -1 0 0 2 -2 0 0 3 -1 0 0 3 -2 0 0 4 -1 0 0 36 -1 0 0 10 -2 0 0 5 -1 0 0 5 -2 0 0 6 -1 0 0 2 -1 0 0 5 -2 0 0 4 -1 0 0 3 -2 0 0 4 -1 0 0 2 -1 0 0 3 -2 0 0 3 -1 0 0 3 -1 0 0 3 -2 0 0 2 -1 0 0 3 -2 0 0 3 -1 0 0 3 -1 0 0 2 -2 0 0 3 -1 0 0 3 -2 0 0 3 -1 0 0 3 -1 0 0 2 -2 0 0 3 -1 0 0 3 -2 0 0 3 -1 0 0 9 1 0 0 2 2 0 0 3 1 0 0 1 3 0 0 1 1 0 0 2 2 0 0 31 1 0 0 1 2 0 0 1 1 0 0 2 3 0 0 1 3 0 0 2 13 0 0 1 6 0 0 1 12 0 0 2 16 0 0 1 16 0 0 -1 2 0 0 -3 1 0 0 -1 2 0 0 -2 2 0 0 -1 2 0 0 -16 -2 0 0 -4 -1 0 0 -3 -1 0 0 -1 -2 0 0 -6 -1 0 0 -2 -2 0 0 -3 -1 0 0 -3 -1 0 0 -3 -2 0 0 -3 -1 0 0 -1 -2 0 0 -3 -1 0 0 -4 -1 0 0 -3 -2 0 0 -14 2 0 0 -8 1 0 0 -10 1 0 0 -5 2 0 0 -4 1 0 0 -5 2 0 0 -6 1 0 0 -2 1 0 0 -5 2 0 0 -3 1 0 0 -6 2 0 0 -1 1 0 0 -3 1 0 0 -1 2 0 0 -3 1 0 0 -3 2 0 0 -2 1 0 0 -1 1 0 0 -1 2 0 0 -3 1 0 0 -2 1 0 0 -1 4 0 0 -1 2 0 0 -2 2 0 0 -1 1 0 0 -1 3 0 0 -2 1 0 0 -1 3 0 0 -3 3 0 0 -1 1 0 0 -2 2 0 0 -1 1 0 0 -2 1 0 0 -1 2 0 0 -1 1 0 0 -2 2 0 0 -1 1 0 0 -2 1 0 0 -1 2 0 0 -1 1 0 0 -2 3 0 0 -1 3 0 0 -1 1 0 0 -2 3 0 0 -1 1 0 0 -2 3 0 0 -1 1 0 0 -1 3 0 0 -2 2 0 0 -1 2 0 0 -2 3 0 0 -1 3 0 0 -1 3 0 0 -2 5 0 0 -1 4 0 0 -2 6 0 0 -1 6 0 0 -1 27 0 0 1 23 0 0 1 5 0 0 2 7 0 0 1 3 0 0 2 4 0 0 1 4 0 0 1 5 0 0 2 1 0 0 1 3 0 0 2 1 0 0 1 3 0 0 1 1 0 0 2 3 0 0 1 2 0 0 2 1 0 0 1 1 0 0 1 2 0 0 2 1 0 0 1 1 0 0 3 2 0 0 14 -2 0 0 3 -1 0 0 2 -1 0 0 3 -2 0 0 13 2 0 0 5 1 0 0 7 1 0 0 34 -1 0 0 7 -1 0 0 4 -2 0 0 8 -1 0 0 17 1 0 0 1 2 0 0 2 2 0 0 1 2 0 0 1 1 0 0 2 3 0 0 1 1 0 0 2 2 0 0 1 1 0 0 3 2 0 0 11 -5 0 0 1 2 0 0 2 1 0 0 1 2 0 0 3 1 0 0 1 1 0 0 2 2 0 0 1 1 0 0 3 1 0 0 1 2 0 0 2 1 0 0 3 2 0 0 1 1 0 0 1 1 0 0 3 2 0 0 2 1 0 0 1 2 0 0 1 1 0 0 2 1 0 0 1 3 0 0 2 2 0 0 1 1 0 0 1 1 0 0 2 3 0 0 1 1 0 0 1 59 0 0 5 2 0 0 4 1 0 0 3 1 0 0 2 2 0 0 3 1 0 0 6 1 0 0 7 2 0 0 4 1 0 0 4 2 0 0 3 1 0 0 3 1 0 0 2 2 0 0 2 1 0 0 1 3 0 0 1 4 0 0 2 7 0 0 1 6 0 0 2 5 0 0 1 15 0 0 -1 2 0 0 -3 1 0 0 -7 2 0 0 -28 2 0 0 6 2 0 0 26 1 0 0 1 5 0 0 2 7 0 0 1 7 0 0 -1 13 0 0 -10 -1 0 0 -19 -1 0 0 -3 -2 0 0 -3 -1 0 0 -3 -1 0 0 -2 -2 0 0 -2 -1 0 0 -1 -2 0 0 -4 -1 0 0 -2 -1 0 0 -9 -2 0 0 -5 -1 0 0 -8 -2 0 0 -7 -1 0 0 -4 -1 0 0 -6 -2 0 0 -10 -1 0 0 -4 -2 0 0 -1 -1 0 0 -6 -1 0 0 -28 1 0 0 -12 1 0 0 -6 2 0 0 -4 1 0 0 -3 2 0 0 -4 1 0 0 -4 1 0 0 -4 2 0 0 -3 1 0 0 -1 2 0 0 -3 1 0 0 -3 1 0 0 -1 2 0 0 -3 1 0 0 -3 2 0 0 -3 1 0 0 -5 1 0 0 -7 2 0 0 -2 2 0 0 8 -1 0 0 4 -1 0 0 4 -2 0 0 4 2 0 0 1 4 0 0 2 4 0 0 1 6 0 0 2 4 0 0 1 5 0 0 1 7 0 0 2 13 0 0 1 15 0 0 -1 6 0 0 -2 2 0 0 -1 5 0 0 -1 2 0 0 -2 2 0 0 -1 2 0 0 -2 3 0 0 -1 2 0 0 -1 1 0 0 -2 3 0 0 -1 1 0 0 -2 2 0 0 -1 2 0 0 -1 2 0 0 -2 1 0 0 -1 2 0 0 -1 3 0 0 -2 1 0 0 -2 3 0 0 -1 1 0 0 -1 2 0 0 -2 1 0 0 -1 1 0 0 -2 2 0 0 -1 1 0 0 -1 2 0 0 -2 2 0 0 -1 2 0 0 -1 1 0 0 -2 1 0 0 -1 2 0 0 -2 3 0 0 -1 1 0 0 -1 1 0 0 -2 2 0 0 -1 1 0 0 -2 2 0 0 -1 1 0 0 -1 1 0 0 -2 2 0 0 -1 1 0 0 -2 2 0 0 -1 1 0 0 -1 1 0 0 -2 2 0 0 -1 1 0 0 -1 1 0 0 -3 2 0 0 -2 1 0 0 -1 2 0 0 -1 1 0 0 -2 1 0 0 -1 2 0 0 -3 1 0 0 -1 2 0 0 -2 1 0 0 -3 1 0 0 -1 2 0 0 -1 1 0 0 -2 2 0 0 -2 1 0 0 -2 1 0 0 -1 2 0 0 -3 1 0 0 -1 1 0 0 -2 2 0 0 -1 1 0 0 -3 2 0 0 -1 1 0 0 -3 1 0 0 -3 2 0 0 -3 1 0 0 -2 2 0 0 -3 1 0 0 -3 1 0 0 -1 2 0 0 -5 1 0 0 -2 2 0 0 -5 1 0 0 -6 1 0 0 -5 2 0 0 -4 1 0 0 -2 1 0 0 5 -1 0 0 7 -1 0 0 5 -2 0 0 5 -1 0 0 2 -1 0 0 3 -2 0 0 4 -1 0 0 5 -2 0 0 1 -1 0 0 3 -1 0 0 2 -2 0 0 3 -1 0 0 3 -2 0 0 1 -1 0 0 2 -1 0 0 3 -2 0 0 1 -1 0 0 1 -2 0 0 3 -1 0 0 2 -1 0 0 2 -2 0 0 2 -1 0 0 2 -1 0 0 2 -2 0 0 3 -1 0 0 1 -2 0 0 1 -1 0 0 2 -1 0 0 3 -2 0 0 1 -1 0 0 3 -2 0 0 1 -1 0 0 3 -1 0 0 1 -2 0 0 3 -1 0 0 3 -2 0 0 1 -1 0 0 2 -1 0 0 2 -2 0 0 2 -1 0 0 3 -1 0 0 1 -2 0 0 1 -1 0 0 10 1 0 0 10 2 0 0 3 1 0 0 5 1 0 0 3 2 0 0 3 1 0 0 1 1 0 0 3 2 0 0 2 1 0 0 2 2 0 0 7 1 0 0 4 1 0 0 10 2 0 0 31 -2 0 0 8 -1 0 0 7 -1 0 0 3 -2 0 0 5 -1 0 0 3 -2 0 0 8 -2 0 0 2 -2 0 0 4 -1 0 0 10 -1 0 0 1 -2 0 0 19 2 0 0 6 1 0 0 9 1 0 0 4 2 0 0 7 2 0 0 1 3 0 0 2 2 0 0 2 5 0 0 2 3 0 0 3 1 0 0 1 7 0 0 1 2 0 0 2 5 0 0 1 9 0 0 2 25 0 0 -2 1 0 0 -1 9 0 0 -2 1 0 0 -1 3 0 0 -1 1 0 0 -2 2 0 0 -5 1 0 0 -11 -1 0 0 -6 -2 0 0 -6 -1 0 0 -12 -2 0 0 -23 -1 0 0 -9 -1 0 0 -11 -2 0 0 -7 -1 0 0 -5 -2 0 0 -6 -1 0 0 -5 -2 0 0 -4 -1 0 0 -4 -1 0 0 -4 -2 0 0 -6 -1 0 0 -40 1 0 0 -6 2 0 0 -5 1 0 0 -5 1 0 0 -5 2 0 0 -4 1 0 0 -4 2 0 0 -6 1 0 0 -3 2 0 0 -4 1 0 0 -4 1 0 0 -4 2 0 0 -4 1 0 0 -5 2 0 0 -4 1 0 0 -3 1 0 0 -2 2 0 0 -3 1 0 0 -3 2 0 0 -1 1 0 0 -2 1 0 0 -2 2 0 0 -2 1 0 0 -3 1 0 0 -2 2 0 0 -3 1 0 0 -2 2 0 0 -2 1 0 0 -5 1 0 0 -1 2 0 0 -4 1 0 0 -3 2 0 0 -3 1 0 0 -4 1 0 0 -3 2 0 0 -2 1 0 0 -5 1 0 0 -4 2 0 0 -6 1 0 0 -4 2 0 0 -5 1 0 0 -6 1 0 0 -3 2 0 0 -2 1 0 0 -3 2 0 0 -3 1 0 0 -3 1 0 0 -3 2 0 0 -2 1 0 0 -3 2 0 0 -6 1 0 0 -4 1 0 0 -25 -1 0 0 -7 -1 0 0 -7 -2 0 0 -7 -1 0 0 -2 -2 0 0 -16 2 0 0 -8 1 0 0 -11 2 0 0 -46 -2 0 0 -22 -1 0 0 -12 -2 0 0 -5 -1 0 0 -4 -1 0 0 -9 -2 0 0 -4 -1 0 0 -7 -2 0 0 -6 -1 0 0 -5 -1 0 0 -4 -2 0 0 -6 -1 0 0 -3 -2 0 0 -5 -1 0 0 -4 -1 0 0 -3 -2 0 0 -4 -1 0 0 -5 -1 0 0 -2 -2 0 0 -3 -1 0 0 -4 -2 0 0 -2 -1 0 0 -4 -1 0 0 -4 -2 0 0 -3 -1 0 0 -3 -2 0 0 -2 -1 0 0 -3 -1 0 0 -4 -2 0 0 -3 -1 0 0 -3 -1 0 0 -1 -2 0 0 -3 -1 0 0 -4 -2 0 0 -2 -1 0 0 -2 -1 0 0 -3 -2 0 0 -3 -1 0 0 -3 -2 0 0 -2 -1 0 0 -3 -1 0 0 -2 -2 0 0 -3 -1 0 0 -2 -2 0 0 -3 -1 0 0 -2 -2 0 0 -2 -1 0 0 -3 -1 0 0 -2 -2 0 0 -2 -1 0 0 -2 -2 0 0 -3 -1 0 0 -2 -1 0 0 -2 -2 0 0 -1 -1 0 0 -3 -2 0 0 -3 2 0 0 -1 1 0 0 -1 3 0 0 -2 3 0 0 -1 1 0 0 -2 2 0 0 -1 1 0 0 -1 1 0 0 -2 2 0 0 -1 1 0 0 -2 2 0 0 -1 1 0 0 -1 2 0 0 -2 1 0 0 -1 1 0 0 -1 2 0 0 -2 1 0 0 -1 2 0 0 -2 1 0 0 -1 1 0 0 -1 2 0 0 -2 1 0 0 -1 2 0 0 -2 1 0 0 -1 1 0 0 -1 2 0 0 -2 1 0 0 -1 1 0 0 -2 2 0 0 -2 1 0 0 -2 2 0 0 -7 -2 0 0 -1 -4 0 0 -1 -3 0 0 -2 -4 0 0 -1 -3 0 0 -2 -4 0 0 -1 -3 0 0 -3 2 0 0 -1 3 0 0 -2 1 0 0 -1 3 0 0 -1 1 0 0 -2 2 0 0 -1 1 0 0 -1 3 0 0 -2 1 0 0 -1 1 0 0 -2 2 0 0 -1 1 0 0 -1 2 0 0 -2 1 0 0 -1 1 0 0 -2 2 0 0 -1 1 0 0 -1 2 0 0 -2 1 0 0 -3 1 0 0 -1 2 0 0 -2 1 0 0 -1 1 0 0 -3 2 0 0 -1 1 0 0 -3 2 0 0 -1 1 0 0 -3 1 0 0 -2 2 0 0 -4 1 0 0 -2 2 0 0 -6 1 0 0 -3 1 0 0 -5 2 0 0 -4 1 0 0 -21 -1 0 0 -13 -2 0 0 -3 -1 0 0 -4 -1 0 0 -7 -2 0 0 -2 -1 0 0 -3 -2 0 0 -3 -1 0 0 -4 -1 0 0 -2 -2 0 0 -2 -1 0 0 -3 -2 0 0 -2 -1 0 0 -2 -1 0 0 -3 -2 0 0 -2 -1 0 0 -3 -1 0 0 -2 -2 0 0 -2 -1 0 0 -1 -2 0 0 -3 -1 0 0 -1 -1 0 0 -2 -3 0 0 -2 -6 0 0 5zm-342 658l1 0 0 4 1 0 0 4 2 0 0 5 1 0 0 5 2 0 0 2 1 0 0 13 1 0 0 14 -4 0 0 -2 -7 0 0 -1 -5 0 0 -1 -3 0 0 -2 -6 0 0 -1 -2 0 0 -2 -5 0 0 -1 -1 0 0 3 3 0 0 1 1 0 0 2 3 0 0 1 1 0 0 3 -1 0 0 1 -1 0 0 3 -2 0 0 1 -1 0 0 2 -2 0 0 1 -1 0 0 1 -1 0 0 3 -2 0 0 2 -1 0 0 2 -2 0 0 2 -1 0 0 3 -1 0 0 1 -2 0 0 2 -1 0 0 1 -2 0 0 1 -1 0 0 3 -2 0 0 4 -1 0 0 7 -1 0 0 55 1 0 0 2 1 0 0 2 2 0 0 2 1 0 0 5 2 0 0 4 1 0 0 1 2 0 0 2 1 0 0 1 1 0 0 6 2 0 0 2 1 0 0 2 2 0 0 1 1 0 0 1 1 0 0 2 2 0 0 1 1 0 0 2 3 0 0 2 1 0 0 2 2 0 0 1 1 0 0 2 2 0 0 3 1 0 0 1 1 0 0 3 2 0 0 1 1 0 0 2 1 0 0 1 5 0 0 -1 2 0 0 -7 2 0 0 -5 1 0 0 -4 2 0 0 -3 1 0 0 -4 1 0 0 -1 2 0 0 -6 1 0 0 -4 2 0 0 -3 1 0 0 -4 1 0 0 -3 2 0 0 -4 1 0 0 -1 1 0 0 -6 2 0 0 -4 1 0 0 -4 2 0 0 -4 1 0 0 -10 1 0 0 -8 2 0 0 -14 -2 0 0 -7 -1 0 0 -3 -1 0 0 -3 -2 0 0 -4 -1 0 0 -6 -2 0 0 -22 -1 0 0 -11 -1 0 0 -4 -2 0 0 -5 -1 0 0 -4 -1 0 0 -4 -2 0 0 -3 -1 0 0 -2 -2 0 0 -5 -1 0 0 -4 -1 0 0 -1 -2 0 0 -4 -1 0 0 -3 -2 0 0 -4 -2 0 0 3zm161 -510l-11 0 0 1 -4 0 0 2 -4 0 0 1 -3 0 0 1 -3 0 0 2 -1 0 0 1 -2 0 0 2 -1 0 0 8 3 0 0 -1 1 0 0 4 -1 0 0 4 -2 0 0 3 -1 0 0 2 -1 0 0 2 -2 0 0 3 -1 0 0 1 -2 0 0 3 -1 0 0 3 -1 0 0 2 -2 0 0 3 -1 0 0 3 -2 0 0 1 -1 0 0 3 -1 0 0 1 4 0 0 -1 1 0 0 -1 3 0 0 -2 1 0 0 -1 2 0 0 -1 1 0 0 -2 2 0 0 -1 1 0 0 -2 3 0 0 -1 1 0 0 -1 3 0 0 -2 1 0 0 -1 2 0 0 -2 1 0 0 -1 1 0 0 -1 2 0 0 -2 1 0 0 -1 2 0 0 -2 1 0 0 -2 3 0 0 -2 1 0 0 -1 2 0 0 -1 2 0 0 -2 3 0 0 -1 1 0 0 -2 3 0 0 -1 4 0 0 -1 3 0 0 1 -1 0 0 1 -2 0 0 2 -1 0 0 1 -1 0 0 2 -2 0 0 1 -1 0 0 1 -3 0 0 2 -1 0 0 1 -2 0 0 1 -1 0 0 3 -1 0 0 2 -2 0 0 1 -1 0 0 1 -3 0 0 2 -1 0 0 1 -2 0 0 2 -1 0 0 1 -2 0 0 1 -1 0 0 2 -1 0 0 1 -2 0 0 2 -1 0 0 1 -3 0 0 1 -1 0 0 2 -3 0 0 1 -3 0 0 1 -4 0 0 2 -1 0 0 1 -3 0 0 2 -3 0 0 1 -3 0 0 1 -3 0 0 2 -2 0 0 1 -3 0 0 -3 1 0 0 -5 2 0 0 -4 1 0 0 -2 1 0 0 -2 2 0 0 -3 1 0 0 -3 -3 0 0 3 -1 0 0 1 -1 0 0 2 -2 0 0 1 -1 0 0 3 -1 0 0 1 -2 0 0 3 -1 0 0 3 -2 0 0 2 -1 0 0 2 -1 0 0 3 -2 0 0 2 -1 0 0 6 -2 0 0 1 -1 0 0 2 -1 0 0 1 -2 0 0 1 -1 0 0 2 -2 0 0 1 -2 0 0 2 -10 0 0 1 -5 0 0 1 -5 0 0 2 -3 0 0 1 -3 0 0 2 -2 0 0 1 -2 0 0 1 -1 0 0 2 -2 0 0 1 -1 0 0 2 -1 0 0 1 -2 0 0 1 -1 0 0 2 -2 0 0 3 -1 0 0 3 1 0 0 1 2 0 0 -1 1 0 0 -3 2 0 0 -2 5 0 0 2 2 0 0 1 1 0 0 2 1 0 0 2 2 0 0 7 -2 0 0 2 -1 0 0 15 -1 0 0 3 -2 0 0 4 -1 0 0 11 3 0 0 1 1 0 0 2 3 0 0 -2 1 0 0 -2 -3 0 0 -3 2 0 0 -2 1 0 0 -1 2 0 0 -1 1 0 0 -2 3 0 0 -1 2 0 0 -1 6 0 0 -2 13 0 0 2 8 0 0 -2 2 0 0 -3 1 0 0 -1 -1 0 0 -1 -2 0 0 -2 -1 0 0 -1 -2 0 0 -2 -2 0 0 2 -2 0 0 3 -1 0 0 1 -2 0 0 1 -1 0 0 -2 1 0 0 -5 2 0 0 -4 -6 0 0 -4 -3 0 0 1 -1 0 0 2 -2 0 0 1 -2 0 0 -8 1 0 0 -4 1 0 0 -2 -2 0 0 2 -2 0 0 3 -1 0 0 1 -2 0 0 3 -2 0 0 -2 1 0 0 -8 -1 0 0 -4 -2 0 0 -3 -1 0 0 -3 1 0 0 -1 19 0 0 2 -2 0 0 2 -1 0 0 1 -2 0 0 2 6 0 0 -2 3 0 0 7 1 0 0 5 2 0 0 8 2 0 0 1 2 0 0 2 3 0 0 1 1 0 0 1 4 0 0 -1 3 0 0 -1 1 0 0 -2 3 0 0 -1 3 0 0 -2 1 0 0 -1 2 0 0 -1 2 0 0 -2 2 0 0 -1 1 0 0 -1 3 0 0 -2 1 0 0 -1 2 0 0 -3 1 0 0 -1 2 0 0 -2 1 0 0 -4 1 0 0 -3 -1 0 0 -3 -1 0 0 -1 -2 0 0 -2 -1 0 0 -1 -6 0 0 1 -1 0 0 2 -2 0 0 3 -1 0 0 2 -1 0 0 3 -2 0 0 3 -1 0 0 3 -2 0 0 3 3 0 0 -2 3 0 0 -1 1 0 0 -1 2 0 0 2 -2 0 0 2 -1 0 0 1 -1 0 0 2 -2 0 0 1 -1 0 0 1 -2 0 0 2 -4 0 0 1 -4 0 0 1 -5 0 0 -1 -2 0 0 -18 2 0 0 -2 2 0 0 -1 3 0 0 -1 3 0 0 -2 1 0 0 -1 3 0 0 -2 3 0 0 -1 3 0 0 -1 2 0 0 -2 5 0 0 -1 2 0 0 -2 2 0 0 -1 1 0 0 -3 2 0 0 -1 -3 0 0 1 -10 0 0 2 -4 0 0 1 -4 0 0 1 -16 0 0 2 -9 0 0 -2 2 0 0 -1 6 0 0 -1 7 0 0 -2 4 0 0 -1 6 0 0 -2 2 0 0 -1 3 0 0 -1 4 0 0 -2 2 0 0 -1 1 0 0 -1 3 0 0 -2 1 0 0 -1 2 0 0 3 -2 0 0 1 -1 0 0 3 -3 0 0 2 4 0 0 -1 2 0 0 -1 1 0 0 -2 2 0 0 -1 1 0 0 -1 1 0 0 -2 2 0 0 -1 1 0 0 -2 1 0 0 -1 2 0 0 -1 3 0 0 -2 1 0 0 -1 3 0 0 -2 3 0 0 -1 2 0 0 -1 3 0 0 -2 3 0 0 -1 3 0 0 -2 2 0 0 -1 3 0 0 -1 2 0 0 -2 1 0 0 -1 1 0 0 -1 2 0 0 -3 1 0 0 -2 2 0 0 -2 1 0 0 -3 3 0 0 -3 1 0 0 -1 2 0 0 -2 1 0 0 -1 4 0 0 -2 1 0 0 -1 5 0 0 -1 2 0 0 -2 5 0 0 -1 2 0 0 -1 3 0 0 1 -1 0 0 1 -3 0 0 2 -3 0 0 1 -3 0 0 1 -2 0 0 2 -2 0 0 1 -1 0 0 2 -2 0 0 1 -1 0 0 1 -1 0 0 2 -2 0 0 3 -1 0 0 1 -1 0 0 3 -2 0 0 3 -1 0 0 2 -2 0 0 3 -1 0 0 1 4 0 0 -1 2 0 0 -1 1 0 0 -2 1 0 0 -2 2 0 0 -3 1 0 0 -3 1 0 0 -1 2 0 0 -2 1 0 0 -1 2 0 0 -2 1 0 0 -1 1 0 0 -1 3 0 0 -2 3 0 0 -1 1 0 0 -2 3 0 0 -1 2 0 0 -1 3 0 0 -2 1 0 0 3 -3 0 0 1 -1 0 0 2 -2 0 0 1 -3 0 0 3 -2 0 0 1 -2 0 0 2 -1 0 0 1 -2 0 0 3 -1 0 0 1 -1 0 0 2 -2 0 0 3 -1 0 0 1 -2 0 0 3 -1 0 0 2 -1 0 0 6 4 0 0 -1 1 0 0 -2 2 0 0 -3 1 0 0 -2 1 0 0 -2 2 0 0 -2 1 0 0 -3 2 0 0 -3 1 0 0 -3 1 0 0 -1 2 0 0 -2 1 0 0 -1 2 0 0 -1 1 0 0 -2 3 0 0 -1 3 0 0 -2 1 0 0 -1 3 0 0 -1 3 0 0 -2 7 0 0 -1 2 0 0 -1 3 0 0 -2 3 0 0 -4 -3 0 0 -1 -3 0 0 -2 -23 0 0 2 -7 0 0 1 -3 0 0 1 -3 0 0 2 -3 0 0 1 -3 0 0 2 -1 0 0 1 -3 0 0 1 -2 0 0 2 -3 0 0 1 -2 0 0 1 -1 0 0 2 -1 0 0 3 -2 0 0 1 -1 0 0 3 -2 0 0 3 -1 0 0 1 -1 0 0 1 -3 0 0 2 -2 0 0 1 -2 0 0 2 -3 0 0 1 -3 0 0 1 -1 0 0 2 -3 0 0 -2 1 0 0 -1 2 0 0 -1 1 0 0 -2 2 0 0 -1 1 0 0 -2 1 0 0 -2 2 0 0 -2 1 0 0 -1 1 0 0 -2 2 0 0 -2 1 0 0 -2 2 0 0 -3 1 0 0 -1 1 0 0 -1 2 0 0 -2 1 0 0 -2 3 0 0 -2 1 0 0 -1 2 0 0 -2 3 0 0 -1 2 0 0 -1 4 0 0 -2 3 0 0 -1 3 0 0 -2 6 0 0 -1 5 0 0 -1 7 0 0 -2 2 0 0 -1 3 0 0 -2 1 0 0 -1 3 0 0 -1 1 0 0 -2 3 0 0 -1 1 0 0 -1 3 0 0 -2 1 0 0 -1 2 0 0 -2 1 0 0 2 2 0 0 9 1 0 0 2 1 0 0 3 3 0 0 -9 2 0 0 -2 1 0 0 -3 1 0 0 -4 2 0 0 -2 1 0 0 -3 2 0 0 -1 2 0 0 -4 -8 0 0 1 -4 0 0 1 -2 0 0 2 -1 0 0 1 -1 0 0 2 -3 0 0 1 -2 0 0 2 -1 0 0 1 -3 0 0 1 -1 0 0 2 -1 0 0 1 -3 0 0 2 -3 0 0 1 -1 0 0 1 -3 0 0 -7 1 0 0 -1 3 0 0 -1 1 0 0 -2 2 0 0 -1 4 0 0 -2 3 0 0 -1 1 0 0 -2 3 0 0 -1 3 0 0 -1 2 0 0 -2 3 0 0 -1 2 0 0 -2 12 0 0 -1 3 0 0 -3 -2 0 0 -1 -11 0 0 1 -2 0 0 2 -3 0 0 1 -3 0 0 1 -3 0 0 2 -3 0 0 1 -4 0 0 2 -1 0 0 1 -3 0 0 1 -4 0 0 2 -3 0 0 1 -3 0 0 2 -2 0 0 1 -3 0 0 2 -9 0 0 1 -37 0 0 1 -7 0 0 2 -3 0 0 1 3 0 0 2 8 0 0 1zm194 -131l1 0 0 4 2 0 0 4 1 0 0 5 1 0 0 8 2 0 0 17 -2 0 0 5 -1 0 0 7 -1 0 0 3 -2 0 0 3 -1 0 0 2 -2 0 0 2 -1 0 0 3 -1 0 0 1 -2 0 0 3 -1 0 0 1 -2 0 0 2 -1 0 0 1 -1 0 0 1 -2 0 0 3 -1 0 0 1 -1 0 0 2 -2 0 0 1 -1 0 0 2 -3 0 0 1 -1 0 0 1 -2 0 0 2 -1 0 0 1 -3 0 0 2 -1 0 0 1 -2 0 0 1 -3 0 0 2 -3 0 0 1 -1 0 0 1 -1 0 0 2 -3 0 0 1 -3 0 0 2 -3 0 0 1 -3 0 0 1 -2 0 0 2 -3 0 0 1 -3 0 0 2 -4 0 0 1 -3 0 0 1 -4 0 0 2 -3 0 0 1 -3 0 0 2 -2 0 0 1 -3 0 0 1 -13 0 0 2 -1 0 0 1 -1 0 0 2 -2 0 0 3 -1 0 0 2 -2 0 0 7 2 0 0 -1 1 0 0 -6 2 0 0 -1 1 0 0 -1 3 0 0 1 1 0 0 1 2 0 0 2 1 0 0 1 1 0 0 2 2 0 0 1 3 0 0 1 1 0 0 2 4 0 0 -2 4 0 0 -1 3 0 0 3 -3 0 0 1 -4 0 0 1 -1 0 0 2 -4 0 0 1 -5 0 0 2 -2 0 0 1 -2 0 0 1 2 0 0 2 4 0 0 -2 4 0 0 -1 4 0 0 -1 3 0 0 -2 3 0 0 -1 4 0 0 -2 3 0 0 -1 2 0 0 -1 3 0 0 -2 3 0 0 -1 3 0 0 -1 2 0 0 -2 2 0 0 -1 4 0 0 -2 1 0 0 -1 3 0 0 -1 2 0 0 -2 2 0 0 -1 3 0 0 -2 2 0 0 -1 1 0 0 -2 3 0 0 -1 1 0 0 -1 2 0 0 -2 3 0 0 -1 1 0 0 -2 1 0 0 -1 2 0 0 -1 1 0 0 -2 3 0 0 -1 1 0 0 -2 2 0 0 -1 1 0 0 -1 1 0 0 -2 2 0 0 -1 1 0 0 -2 2 0 0 -1 1 0 0 -3 1 0 0 -1 2 0 0 -1 1 0 0 -3 2 0 0 -3 1 0 0 -1 1 0 0 -3 2 0 0 -3 1 0 0 -4 1 0 0 -7 2 0 0 -3 1 0 0 -15 2 0 0 18 -2 0 0 7 -1 0 0 5 -2 0 0 5 -1 0 0 1 -1 0 0 3 -2 0 0 3 -1 0 0 1 -1 0 0 3 -2 0 0 1 -1 0 0 3 -2 0 0 1 -1 0 0 2 -1 0 0 1 -2 0 0 1 -1 0 0 2 -2 0 0 1 -1 0 0 3 -3 0 0 1 -1 0 0 2 -1 0 0 1 -2 0 0 2 -1 0 0 1 -2 0 0 1 -1 0 0 2 -1 0 0 1 -3 0 0 2 -2 0 0 1 -1 0 0 2 -3 0 0 1 -1 0 0 1 -2 0 0 2 -3 0 0 1 -1 0 0 2 -3 0 0 1 -3 0 0 1 -2 0 0 2 -2 0 0 1 -3 0 0 1 -2 0 0 2 -2 0 0 1 -2 0 0 2 -2 0 0 1 -3 0 0 1 -1 0 0 2 -3 0 0 1 -3 0 0 2 -2 0 0 1 -3 0 0 1 -2 0 0 2 -2 0 0 1 -4 0 0 2 -2 0 0 1 -4 0 0 1 -1 0 0 3 9 0 0 -1 4 0 0 -2 3 0 0 -1 3 0 0 -1 4 0 0 -2 3 0 0 -1 3 0 0 -2 3 0 0 -1 2 0 0 -1 3 0 0 -2 3 0 0 -1 3 0 0 -2 2 0 0 -1 2 0 0 -1 3 0 0 -2 2 0 0 -1 2 0 0 -2 1 0 0 -1 3 0 0 -1 2 0 0 -2 2 0 0 -1 2 0 0 -1 3 0 0 -2 1 0 0 -1 1 0 0 -2 2 0 0 -1 1 0 0 -1 2 0 0 -2 2 0 0 -1 2 0 0 -2 1 0 0 -1 1 0 0 -2 2 0 0 -1 1 0 0 -1 2 0 0 -2 1 0 0 -1 1 0 0 -3 2 0 0 -1 1 0 0 -2 2 0 0 -1 1 0 0 -2 1 0 0 -2 2 0 0 -2 1 0 0 -3 1 0 0 -1 2 0 0 -3 1 0 0 -2 2 0 0 -3 1 0 0 -3 1 0 0 -6 2 0 0 -2 1 0 0 -7 2 0 0 -20 -2 0 0 -7 -1 0 0 -5 -2 0 0 -6 -1 0 0 -5 -1 0 0 -3 -2 0 0 -4 -1 0 0 -3 -2 0 0 -3 -1 0 0 -3 -1 0 0 -2 -2 0 0 -3 -1 0 0 -2 -1 0 0 -2 -3 0 0 1zm-304 50l-1 0 0 1 -2 0 0 2 -1 0 0 1 -2 0 0 2 -1 0 0 2 -1 0 0 2 -2 0 0 1 -1 0 0 3 -1 0 0 1 -2 0 0 3 -1 0 0 3 -2 0 0 4 -1 0 0 3 -1 0 0 3 -2 0 0 4 -1 0 0 9 -2 0 0 6 -1 0 0 17 1 0 0 6 2 0 0 4 1 0 0 3 2 0 0 4 1 0 0 2 1 0 0 3 2 0 0 2 1 0 0 2 2 0 0 2 1 0 0 1 1 0 0 2 2 0 0 2 1 0 0 2 1 0 0 1 2 0 0 2 1 0 0 1 2 0 0 1 1 0 0 2 3 0 0 1 1 0 0 1 2 0 0 2 2 0 0 1 3 0 0 2 2 0 0 1 2 0 0 1 3 0 0 2 4 0 0 1 3 0 0 2 3 0 0 1 4 0 0 1 7 0 0 2 9 0 0 -2 1 0 0 -2 1 0 0 -3 2 0 0 -2 1 0 0 -1 2 0 0 -1 1 0 0 -2 3 0 0 -1 1 0 0 -2 1 0 0 -1 2 0 0 -1 3 0 0 -2 1 0 0 -1 1 0 0 -1 3 0 0 -12 -23 0 0 -1 -7 0 0 -1 -6 0 0 -2 -3 0 0 -1 -3 0 0 -2 -4 0 0 -1 -4 0 0 -1 -2 0 0 -2 -2 0 0 -1 -3 0 0 -1 -1 0 0 -2 -2 0 0 -1 -1 0 0 -2 -2 0 0 -1 -1 0 0 -1 -1 0 0 -2 -2 0 0 -3 -1 0 0 -3 -2 0 0 -2 -1 0 0 -5 -1 0 0 -4 -2 0 0 -3 -1 0 0 -29 1 0 0 -4 2 0 0 -5 1 0 0 -5 1 0 0 -4 2 0 0 -5 -3 0 0 1zm-128 418l0 3 -1 0 0 3 -2 0 0 1 -1 0 0 3 -2 0 0 3 -1 0 0 1 -1 0 0 3 -2 0 0 2 -1 0 0 3 -2 0 0 4 -1 0 0 3 -1 0 0 4 -2 0 0 3 -1 0 0 8 -1 0 0 6 -2 0 0 11 -1 0 0 21 3 0 0 -6 1 0 0 -11 1 0 0 -7 2 0 0 -5 1 0 0 -6 1 0 0 -5 2 0 0 -3 1 0 0 -3 2 0 0 -4 1 0 0 -4 1 0 0 -4 2 0 0 -3 1 0 0 -3 2 0 0 -3 1 0 0 -2 1 0 0 -2 2 0 0 -3 1 0 0 -1 1 0 0 -3 2 0 0 4 -2 0 0 2 -1 0 0 3 -1 0 0 4 -2 0 0 2 -1 0 0 3 -1 0 0 6 -2 0 0 4 -1 0 0 3 -2 0 0 4 -1 0 0 5 -1 0 0 17 -2 0 0 11 -1 0 0 10 3 0 0 -8 1 0 0 -9 1 0 0 -7 2 0 0 -5 1 0 0 -4 2 0 0 -6 1 0 0 -4 1 0 0 -3 2 0 0 -3 1 0 0 -5 1 0 0 -3 2 0 0 -3 1 0 0 -3 2 0 0 -4 1 0 0 -1 1 0 0 -1 2 0 0 -3 1 0 0 -3 2 0 0 -1 1 0 0 2 -1 0 0 3 -2 0 0 4 -1 0 0 4 -2 0 0 5 -1 0 0 2 -1 0 0 6 -2 0 0 6 -1 0 0 5 -2 0 0 8 -1 0 0 11 -1 0 0 13 1 0 0 -6 1 0 0 -7 2 0 0 -5 1 0 0 -7 2 0 0 -7 1 0 0 -4 1 0 0 -3 2 0 0 -4 1 0 0 -4 2 0 0 -3 1 0 0 -3 1 0 0 -3 2 0 0 -2 1 0 0 -3 2 0 0 -3 1 0 0 -3 1 0 0 -2 2 0 0 -2 1 0 0 -1 1 0 0 3 -1 0 0 4 -1 0 0 3 -2 0 0 8 -1 0 0 3 -1 0 0 4 -2 0 0 4 -1 0 0 7 -2 0 0 8 -1 0 0 10 -1 0 0 4 -2 0 0 10 2 0 0 -3 1 0 0 -6 1 0 0 -2 2 0 0 -7 1 0 0 -6 2 0 0 -5 1 0 0 -6 1 0 0 -3 2 0 0 -7 1 0 0 -2 1 0 0 -5 2 0 0 -4 1 0 0 -2 2 0 0 -2 1 0 0 -4 1 0 0 -3 2 0 0 -3 1 0 0 -1 2 0 0 -2 1 0 0 -2 -6 0 0 -2 2 0 0 -3 1 0 0 -1 2 0 0 -3 1 0 0 -1 2 0 0 -3 1 0 0 -1 1 0 0 -2 2 0 0 -1 1 0 0 -2 2 0 0 -1 1 0 0 -3 1 0 0 -1 2 0 0 -1 1 0 0 -2 2 0 0 -1 1 0 0 -2 1 0 0 -2 2 0 0 -2 1 0 0 -1 2 0 0 -2 1 0 0 -1 1 0 0 -1 2 0 0 -3 1 0 0 -2 1 0 0 -1 2 0 0 -1 1 0 0 -2 2 0 0 -1 1 0 0 -1 1 0 0 -2 2 0 0 -1 1 0 0 -2 2 0 0 -1 1 0 0 -1 1 0 0 -2 2 0 0 -1 1 0 0 -2 2 0 0 -2 1 0 0 -2 1 0 0 -1 -2 0 0 1 -3 0 0 2 -2 0 0 1 -1 0 0 1 -1 0 0 2 -2 0 0 1 -1 0 0 2 -2 0 0 1 -1 0 0 1 -1 0 0 2 -2 0 0 1 -1 0 0 2 -2 0 0 1 -1 0 0 1 -1 0 0 2 -2 0 0 1 -1 0 0 1 -1 0 0 2 -2 0 0 1 -1 0 0 2 -2 0 0 1 -1 0 0 1 -1 0 0 2 -2 0 0 1 -1 0 0 2 -2 0 0 1 -1 0 0 1 -1 0 0 3 -3 0 0 2 -2 0 0 1 -1 0 0 1 -1 0 0 2 -2 0 0 1 -1 0 0 3 -2 0 0 1 -1 0 0 2 -2 0 0 1 -1 0 0 1 -3 0 0 2 -3 0 0 1 -1 0 0 2 -1 0 0 1 -2 0 0 1 -1 0 0 2 -4 0 0 -2 1 0 0 -1 2 0 0 -1 1 0 0 -2 1 0 0 -3 2 0 0 -1 1 0 0 -1 1 0 0 -2 2 0 0 -1 1 0 0 -2 2 0 0 -1 1 0 0 -1 1 0 0 -3 2 0 0 -1 1 0 0 -2 2 0 0 -1 1 0 0 -2 2 0 0 -1 2 0 0 -1 2 0 0 -3 1 0 0 -2 2 0 0 -1 1 0 0 -1 1 0 0 -2 2 0 0 -1 1 0 0 -2 2 0 0 -1 1 0 0 -1 1 0 0 -2 2 0 0 -1 1 0 0 -1 2 0 0 -3 1 0 0 -2 1 0 0 -1 2 0 0 -1 1 0 0 -2 1 0 0 -1 2 0 0 -2 1 0 0 -1 2 0 0 -3 1 0 0 -1 1 0 0 -2 2 0 0 -1 1 0 0 -1 2 0 0 -2 1 0 0 -1 1 0 0 -1 2 0 0 -2 1 0 0 -3 2 0 0 -1 1 0 0 -3 1 0 0 -1 2 0 0 -3 1 0 0 -1 1 0 0 -5 2 0 0 -1 1 0 0 -3 2 0 0 -1 1 0 0 -3 1 0 0 -1 2 0 0 -3 1 0 0 -1 2 0 0 -2 1 0 0 -3 1 0 0 -1 3 0 0 -3 2 0 0 -1 2 0 0 -2 3 0 0 -1 1 0 0 -2 5 0 0 -1 2 0 0 -1 5 0 0 -2 2 0 0 -1 2 0 0 -2 1 0 0 -1 3 0 0 -1 1 0 0 -2 3 0 0 -1 1 0 0 -2 3 0 0 -1 2 0 0 -1 2 0 0 -2 2 0 0 -1 3 0 0 -1 1 0 0 -2 2 0 0 -1 2 0 0 -2 2 0 0 -1 1 0 0 -1 2 0 0 -3 -3 0 0 1 -3 0 0 2 -3 0 0 1 -3 0 0 1 -3 0 0 2 -1 0 0 1 -3 0 0 2 -1 0 0 1 -3 0 0 1 -1 0 0 2 -2 0 0 1 -1 0 0 1 -1 0 0 2 -2 0 0 1 -1 0 0 2 -2 0 0 1 -2 0 0 1 -3 0 0 2 -4 0 0 1 -3 0 0 2 -3 0 0 1 -4 0 0 1 -3 0 0 2 -3 0 0 1 -1 0 0 2 -1 0 0 1 -3 0 0 1 -2 0 0 2 -1 0 0 1 -1 0 0 2 -2 0 0 1 -1 0 0 2 -2 0 0 1 -1 0 0 3 -1 0 0 1 -2 0 0 4 -1 0 0 9 -1 0 0 4 -2 0 0 3 -1 0 0 1 -2 0 0 3 -1 0 0 1 -1 0 0 2 -3 0 0 1 -2 0 0 1 -1 0 0 2 -1 0 0 1 -2 0 0 1 -1 0 0 2 -2 0 0 1 -1 0 0 2 -3 0 0 1 -1 0 0 1 -1 0 0 2 -3 0 0 1 -3 0 0 2 -1 0 0 1 -2 0 0 1 -1 0 0 2 -2 0 0 1 -2 0 0 2 -2 0 0 1 -1 0 0 1 -2 0 0 2 -1 0 0 1 -1 0 0 1 -2 0 0 2 -1 0 0 1 -2 0 0 3 -1 0 0 1 -2 0 0 2 -1 0 0 1 -1 0 0 2 -2 0 0 1 -1 0 0 1 -2 0 0 3 -1 0 0 2 -1 0 0 2 -2 0 0 2 -1 0 0 1 -1 0 0 3 -2 0 0 1 -1 0 0 2 -2 0 0 1 -1 0 0 1 -1 0 0 2 -2 0 0 1 -1 0 0 2 -2 0 0 1 -2 0 0 1 -2 0 0 2 -1 0 0 1 -2 0 0 2 -1 0 0 1 -1 0 0 1 -2 0 0 2 -1 0zm131 145l0 -2 1 0 0 -1 2 0 0 -3 1 0 0 -1 1 0 0 -2 2 0 0 -2 1 0 0 -2 2 0 0 -1 1 0 0 -3 1 0 0 -1 2 0 0 -3 1 0 0 -1 1 0 0 -4 2 0 0 -2 1 0 0 -2 -3 0 0 2 -1 0 0 1 -1 0 0 1 -2 0 0 2 -1 0 0 2 -3 0 0 1 -1 0 0 1 -2 0 0 2 -1 0 0 1 -1 0 0 1 -2 0 0 2 -1 0 0 1 -2 0 0 -3 2 0 0 -1 1 0 0 -3 2 0 0 -2 1 0 0 -4 1 0 0 -1 2 0 0 -3 1 0 0 -1 2 0 0 -2 1 0 0 -2 1 0 0 -2 2 0 0 -1 1 0 0 -1 1 0 0 -5 -4 0 0 2 -2 0 0 1 -2 0 0 2 -3 0 0 1 -2 0 0 1 -2 0 0 2 -1 0 0 -3 1 0 0 -3 2 0 0 -1 1 0 0 -2 1 0 0 -2 2 0 0 -2 1 0 0 -1 2 0 0 -2 1 0 0 -2 1 0 0 -6 -2 0 0 1 -3 0 0 2 -2 0 0 1 -2 0 0 2 -2 0 0 1 -1 0 0 1 -2 0 0 2 -2 0 0 1 -2 0 0 2 -1 0 0 -3 1 0 0 -2 2 0 0 -1 1 0 0 -3 1 0 0 -1 2 0 0 -3 1 0 0 -1 2 0 0 -2 1 0 0 -1 1 0 0 -3 2 0 0 -1 1 0 0 -4 -3 0 0 1 -1 0 0 1 -3 0 0 2 -3 0 0 1 -1 0 0 2 -3 0 0 1 -1 0 0 1 -3 0 0 2 -1 0 0 1 -2 0 0 1 -1 0 0 2 -1 0 0 1 -2 0 0 2 -1 0 0 2 -2 0 0 6 -1 0 0 1 -1 0 0 5 -2 0 0 6 -1 0 0 3 -2 0 0 2 -1 0 0 1 -1 0 0 3 -2 0 0 4 -1 0 0 2 -2 0 0 1 -1 0 0 4 -1 0 0 2 -2 0 0 2 -1 0 0 3 -1 0 0 9 -2 0 0 5 2 0 0 -1 1 0 0 -3 1 0 0 -3 2 0 0 -3 1 0 0 -1 1 0 0 -3 2 0 0 -3 1 0 0 -5 2 0 0 -2 1 0 0 -2 1 0 0 -4 2 0 0 -2 1 0 0 2 2 0 0 4 1 0 0 5 1 0 0 6 2 0 0 8 -2 0 0 3 -1 0 0 3 -1 0 0 4 -2 0 0 3 -1 0 0 4 -2 0 0 3 -1 0 0 4 -1 0 0 3 -2 0 0 4 -1 0 0 7 -2 0 0 1 3 0 0 -1 2 0 0 -3 1 0 0 -2 1 0 0 -2 2 0 0 -3 1 0 0 -1 2 0 0 -7 1 0 0 -5 1 0 0 -4 2 0 0 -7 1 0 0 -1 3 0 0 8 1 0 0 4 -1 0 0 3 -1 0 0 2 -2 0 0 2 -1 0 0 5 -2 0 0 2 -1 0 0 3 -1 0 0 4 -2 0 0 4 -1 0 0 5 -2 0 0 2 -1 0 0 3 3 0 0 -1 1 0 0 -2 2 0 0 -1 1 0 0 -1 1 0 0 -2 2 0 0 -1 1 0 0 -2 2 0 0 -2 1 0 0 -3 1 0 0 -7 2 0 0 -1 2 0 0 5 -1 0 0 3 -1 0 0 4 -2 0 0 1 -1 0 0 3 -1 0 0 3 -2 0 0 3 -1 0 0 1 -2 0 0 3 -1 0 0 1 -1 0 0 3 -2 0 0 3 2 0 0 -2 1 0 0 -1 3 0 0 -1 1 0 0 -2 2 0 0 -1 1 0 0 -1 1 0 0 -2 2 0 0 -1 1 0 0 -2 1 0 0 -1 2 0 0 -1 1 0 0 -3 2 0 0 -2 1 0 0 -1 1 0 0 -1 2 0 0 -3 1 0 0 -2 2 0 0 -1 1 0 0 -3 1 0 0 -2 2 0 0 -2 1 0 0 -3 2 0 0 -1 1 0 0 -3 1 0 0 -3 2 0 0 -1 1 0 0 -3 1 0 0 -1 2 0 0 -2 1 0 0 -1 2 0 0 -3 1 0 0 -2 1 0 0 -3 2 0 0 -2 1 0 0 -1 2 0 0 -3 -3 0 0 2 -2 0 0 1 -1 0 0 1 -1 0 0 2 -2 0 0 1 -1 0 0 2 -2 0 0 1 -1 0 0 1 -1 0 0 2 -2 0 0 1 -1 0 0 1 -1 0 0 2 -2 0 0 1 -1 0 0 2 -2 0 0 1 -1 0 0 1 -1 0 0 2 -2 0 0 -3 2 0 0 -3 1 0 0 -1 1 0 0 -3 2 0 0 -1 1 0 0 -2 2 0 0 -2 1 0 0 -3 1 0 0 -2 2 0 0 -2 1 0 0 -2 1 0 0 -3 2 0 0 -1 1 0 0 -1 2 0 0 -2 1 0 0 -3 1 0 0 -1 2 0 0 -1 -4 0 0 1 -2 0 0 1 -1 0 0 2 -2 0 0 1 -1 0 0 2 -1 0 0 1 -3 0 0 1 -1 0 0 2 -2 0 0 1 -1 0 0 2 -2 0 0 1 -1 0 0 3 -3 0 0 3 -3 0 0 -3 2 0zm-160 -128l1 0 0 -2 2 0 0 -1 1 0 0 -3 1 0 0 -3 2 0 0 -1 1 0 0 -3 2 0 0 -1 1 0 0 -3 1 0 0 -2 2 0 0 -1 1 0 0 -1 1 0 0 -2 2 0 0 -3 1 0 0 -1 2 0 0 -1 1 0 0 -2 1 0 0 -1 2 0 0 -2 1 0 0 -1 2 0 0 -1 1 0 0 -2 3 0 0 -1 1 0 0 -2 1 0 0 -1 2 0 0 -1 1 0 0 -2 3 0 0 2 -1 0 0 2 -2 0 0 2 -1 0 0 1 -2 0 0 2 -1 0 0 1 -1 0 0 3 -2 0 0 1 -1 0 0 2 -1 0 0 1 -2 0 0 1 -1 0 0 2 -2 0 0 1 -1 0 0 2 -1 0 0 1 -2 0 0 3 -1 0 0 1 -2 0 0 2 -1 0 0 3 -1 0 0 2 -2 0 0 2 -1 0 0 3 -1 0 0 2 -2 0 0 3 -1 0 0 1 -2 0 0 5 -1 0 0 2 -1 0 0 2 -2 0 0 4 -1 0 0 6 -2 0 0 5 -1 0 0 4 -1 0 0 21 1 0 0 -3 1 0 0 -4 2 0 0 -7 1 0 0 -3 2 0 0 -4 1 0 0 -3 1 0 0 -5 2 0 0 -3 1 0 0 -3 2 0 0 -2 1 0 0 -5 1 0 0 -2 2 0 0 -3 1 0 0 -2 1 0 0 -2 2 0 0 -3 1 0 0 -1 2 0 0 -3 1 0 0 -3 1 0 0 -1 2 0 0 -3 1 0 0 -2 2 0 0 -1 1 0 0 -3 1 0 0 -1 2 0 0 -2 1 0 0 -3 1 0 0 -1 2 0 0 -3 1 0 0 -1 2 0 0 -2 1 0 0 -1 1 0 0 -1 2 0 0 -2 1 0 0 -1 2 0 0 -2 1 0 0 -1 1 0 0 -3 2 0 0 -1 1 0 0 -1 2 0 0 -2 1 0 0 -1 1 0 0 -2 2 0 0 -1 1 0 0 -1 1 0 0 -2 2 0 0 -1 1 0 0 -2 2 0 0 -1 1 0 0 -1 1 0 0 -2 2 0 0 -1 1 0 0 -2 2 0 0 -1 1 0 0 -1 2 0 0 -2 1 0 0 -1 1 0 0 -1 2 0 0 -2 1 0 0 -1 2 0 0 -2 1 0 0 -1 1 0 0 -1 2 0 0 -2 1 0 0 -1 2 0 0 -3 1 0 0 -1 1 0 0 -2 2 0 0 -1 1 0 0 -2 2 0 0 -1 1 0 0 -1 1 0 0 -3 2 0 0 -1 1 0 0 -2 1 0 0 -1 2 0 0 -2 1 0 0 -2 2 0 0 -2 1 0 0 -1 1 0 0 -3 2 0 0 -1 1 0 0 -3 2 0 0 -3 1 0 0 -1 1 0 0 -2 2 0 0 -2 1 0 0 -2 2 0 0 -1 1 0 0 -3 1 0 0 -1 2 0 0 -2 1 0 0 -1 1 0 0 -2 2 0 0 -3 1 0 0 -1 2 0 0 -3 -3 0 0 2 -2 0 0 1 -2 0 0 1 -2 0 0 2 -1 0 0 1 -1 0 0 2 -2 0 0 1 -1 0 0 2 -2 0 0 1 -1 0 0 1 -1 0 0 3 -2 0 0 2 -1 0 0 2 -2 0 0 2 -1 0 0 2 -1 0 0 5 -2 0 0 2 -1 0 0 3 -2 0 0 2 -1 0 0 1 -3 0 0 1 -1 0 0 2 -1 0 0 1 -3 0 0 3 -3 0 0 1 -1 0 0 2 -2 0 0 1 -1 0 0 1 -2 0 0 2 -1 0 0 1 -1 0 0 2 -2 0 0 1 -1 0 0 1 -2 0 0 2 -1 0 0 1 -1 0 0 2 -2 0 0 1 -1 0 0 1 -2 0 0 2 -1 0 0 1 -2 0 0 2 -1 0 0 1 -1 0 0 1 -2 0 0 -2 2 0 0 -2 1 0 0 -1 1 0 0 -2 2 0 0 -1 1 0 0 -1 2 0 0 -3 1 0 0 -2 2 0 0 -1 1 0 0 -1 1 0 0 -2 2 0 0 -1 1 0 0 -2 2 0 0 -1 1 0 0 -3 1 0 0 -1 2 0 0 -1 1 0 0 -2 -3 0 0 2 -1 0 0 1 -1 0 0 1 -2 0 0 2 -3 0 0 1 -1 0 0 1 -1 0 0 2 -3 0 0 1 -2 0 0 2 -1 0 0 1 -2 0 0 1 -1 0 0 2 -3 0 0 1 -1 0 0 2 -2 0 0 1 -1 0 0 1 -1 0 0 2 -3 0 0 1 -1 0 0 2 -2 0 0 1 -1 0 0 -3 1 0 0 -1 2 0 0 -2 1 0 0 -1 1 0 0 -1 2 0 0 -2 1 0 0 -1 1 0 0 -2 2 0 0 -1 1 0 0 -1 2 0 0 -2 1 0 0 -1 1 0 0 -3 2 0 0 -1 1 0 0 -2 2 0 0 -1 1 0 0 -3 -1 0 0 2 -2 0 0 1 -3 0 0 1 -1 0 0 2 -1 0 0 1 -2 0 0 1 -1 0 0 2 -2 0 0 1 -1 0 0 2 -3 0 0 1 -1 0 0 1 -1 0 0 2 -2 0 0 1 -1 0 0 2 -3 0 0 1 -1 0 0 1 -2 0 0 2 -1 0 0 1 -2 0 0 2 -1 0 0 1 -3 0 0 1 -1 0 0 2 -2 0 0 1 -2 0 0 1 -2 0 0 2 -1 0 0 3 -1 0 0 1 -2 0 0 1 -1 0 0 2 -3 0 0 1 -1 0 0 2 -3 0 0 1 -2 0 0 1 -1 0 0 2 -1 0 0 1 -3 0 0 2 4 0 0 -2 3 0 0 -1 1 0 0 -2 3 0 0 -1 1 0 0 -1 3 0 0 -2 3 0 0 -1 1 0 0 -2 3 0 0 2 -1 0 0 1 -2 0 0 3 -1 0 0 1 -1 0 0 2 2 0 0 -2 3 0 0 -1 3 0 0 -1 1 0 0 -2 3 0 0 -1 1 0 0 -2 3 0 0 2 -1 0 0 1 -2 0 0 2 -1 0 0 1 -1 0 0 1 -2 0 0 2 -1 0 0 1 -3 0 0 2 -1 0 0 1 -2 0 0 1 -1 0 0 2 -1 0 0 1 -2 0 0 1 -1 0 0 2 -2 0 0 1 -1 0 0 2 -1 0 0 1 -2 0 0 1 -1 0 0 2 -2 0 0 1 -1 0 0 3 -1 0 0 1 -2 0 0 2 -1 0 0 3 -1 0 0 1 -2 0 0 1 -1 0 0 3 -2 0 0 3 -1 0 0 3 -1 0 0 3 -2 0 0 3 -1 0 0 4zm-36 -81l-4 0 0 1 -6 0 0 2 -3 0 0 1 -4 0 0 1 -3 0 0 2 -3 0 0 1 -3 0 0 2 -2 0 0 1 -3 0 0 1 -3 0 0 2 -3 0 0 1 -1 0 0 1 -3 0 0 2 -3 0 0 1 -1 0 0 2 -3 0 0 1 -1 0 0 1 -2 0 0 2 -2 0 0 1 -2 0 0 3 3 0 0 -1 3 0 0 -2 1 0 0 -1 4 0 0 -2 3 0 0 -1 4 0 0 -1 3 0 0 -2 4 0 0 -1 2 0 0 -2 2 0 0 2 -1 0 0 1 -1 0 0 2 -3 0 0 1 -2 0 0 1 -1 0 0 2 -1 0 0 1 -3 0 0 2 -2 0 0 1 -1 0 0 1 -3 0 0 2 -1 0 0 1 -1 0 0 2 -2 0 0 1 -3 0 0 1 -1 0 0 2 -3 0 0 1 -1 0 0 1 -2 0 0 2 -1 0 0 1 -1 0 0 2 -2 0 0 1 -1 0 0 1 -2 0 0 2 -1 0 0 1 3 0 0 -1 1 0 0 -2 3 0 0 -1 1 0 0 -1 3 0 0 -2 3 0 0 -1 3 0 0 -2 1 0 0 -1 4 0 0 -1 3 0 0 -2 3 0 0 -1 1 0 0 -1 3 0 0 -2 3 0 0 -1 3 0 0 -2 2 0 0 -1 2 0 0 -1 3 0 0 -2 2 0 0 -1 2 0 0 -2 2 0 0 -1 2 0 0 3 -3 0 0 1 -1 0 0 2 -3 0 0 1 -1 0 0 1 -3 0 0 2 -2 0 0 1 -2 0 0 2 -2 0 0 1 -1 0 0 1 -3 0 0 2 -1 0 0 1 -2 0 0 1 -1 0 0 2 -3 0 0 1 -1 0 0 2 -2 0 0 1 -1 0 0 1 -3 0 0 2 -1 0 0 1 -3 0 0 2 -1 0 0 1 -2 0 0 1 -1 0 0 2 -3 0 0 1 -1 0 0 2 -2 0 0 1 -1 0 0 1 3 0 0 -1 4 0 0 -1 1 0 0 -2 3 0 0 -1 1 0 0 -2 3 0 0 -1 3 0 0 -1 1 0 0 -2 3 0 0 -1 4 0 0 -2 3 0 0 -1 3 0 0 -1 3 0 0 -2 1 0 0 -1 3 0 0 -2 1 0 0 -1 4 0 0 -1 2 0 0 -2 2 0 0 -1 3 0 0 -1 3 0 0 -2 2 0 0 -1 3 0 0 -2 4 0 0 2 -2 0 0 1 -1 0 0 2 -1 0 0 1 -2 0 0 1 -3 0 0 2 -1 0 0 1 -2 0 0 1 -1 0 0 2 -3 0 0 1 -1 0 0 2 -2 0 0 1 -1 0 0 1 -3 0 0 2 -1 0 0 1 -2 0 0 2 -2 0 0 1 -2 0 0 1 -3 0 0 2 -1 0 0 1 -1 0 0 2 4 0 0 -2 3 0 0 -1 2 0 0 -2 3 0 0 -1 3 0 0 -1 1 0 0 -2 4 0 0 -1 5 0 0 -2 3 0 0 -1 1 0 0 -1 4 0 0 -2 3 0 0 -1 1 0 0 -2 2 0 0 -1 1 0 0 -1 3 0 0 -2 1 0 0 -1 2 0 0 -1 1 0 0 -2 3 0 0 -1 1 0 0 -2 3 0 0 -1 2 0 0 -1 2 0 0 -2 3 0 0 -1 3 0 0 -2 4 0 0 -1 3 0 0 -1 3 0 0 -3 -3 0 0 1 -4 0 0 2 -3 0 0 1 -11 0 0 1 -9 0 0 -1 2 0 0 -1 3 0 0 -2 2 0 0 -1 5 0 0 -2 2 0 0 -1 -7 0 0 1 -11 0 0 2 -8 0 0 -3 3 0 0 -1 2 0 0 -2 5 0 0 -1 4 0 0 -1 3 0 0 -2 2 0 0 -1 -12 0 0 1 -6 0 0 2 -7 0 0 1 -4 0 0 1 -2 0 0 -2 3 0 0 -2 3 0 0 -1 3 0 0 -2 2 0 0 -1 2 0 0 -1 3 0 0 -2 3 0 0 -3 -4 0 0 2zm241 -11l0 1 -2 0 0 1 -1 0 0 2 -2 0 0 1 -1 0 0 3 -1 0 0 1 -3 0 0 2 -2 0 0 1 -1 0 0 2 -3 0 0 1 -1 0 0 1 -2 0 0 2 -1 0 0 1 -2 0 0 2 -2 0 0 1 -2 0 0 3 -1 0 0 1 -2 0 0 1 -1 0 0 2 -1 0 0 3 -2 0 0 1 -1 0 0 3 -1 0 0 1 -2 0 0 2 -1 0 0 1 -2 0 0 3 -1 0 0 1 -1 0 0 2 -2 0 0 1 -1 0 0 1 -2 0 0 2 -2 0 0 1 -3 0 0 1 -2 0 0 2 -1 0 0 3 -1 0 0 1 -2 0 0 1 -1 0 0 3 -1 0 0 2 -2 0 0 5 -1 0 0 2 -2 0 0 2 -1 0 0 2 -1 0 0 3 -2 0 0 3 -1 0 0 2 -2 0 0 2 -1 0 0 3 -1 0 0 2 -2 0 0 3 -1 0 0 3 -2 0 0 1 -1 0 0 7 -1 0 0 4 1 0 0 -1 1 0 0 -3 2 0 0 -3 1 0 0 -1 2 0 0 -3 1 0 0 -1 1 0 0 -2 2 0 0 -1 1 0 0 -3 2 0 0 -1 1 0 0 -1 1 0 0 -2 2 0 0 -3 1 0 0 -1 2 0 0 -1 1 0 0 -2 1 0 0 -1 2 0 0 3 -2 0 0 4 -1 0 0 1 -1 0 0 4 -2 0 0 4 -1 0 0 6 -2 0 0 3 -1 0 0 1 -1 0 0 2 -2 0 0 1 -1 0 0 1 -2 0 0 2 -2 0 0 3 -2 0 0 1 -1 0 0 3 -2 0 0 1 -1 0 0 1 -1 0 0 3 -2 0 0 3 -1 0 0 3 -1 0 0 3 2 0 0 -2 2 0 0 -1 1 0 0 -2 1 0 0 -1 2 0 0 -1 1 0 0 -2 2 0 0 -1 1 0 0 -3 1 0 0 -1 2 0 0 -2 1 0 0 -1 2 0 0 -3 1 0 0 -1 1 0 0 -3 2 0 0 -1 1 0 0 -5 2 0 0 -2 1 0 0 -3 1 0 0 -3 2 0 0 -1 1 0 0 -3 1 0 0 -1 2 0 0 -2 1 0 0 -1 2 0 0 -2 1 0 0 -1 1 0 0 -1 2 0 0 -3 1 0 0 -2 2 0 0 -1 1 0 0 -2 1 0 0 -1 2 0 0 -1 1 0 0 -2 2 0 0 -1 1 0 0 -2 1 0 0 -1 2 0 0 -3 1 0 0 -1 1 0 0 -2 2 0 0 -1 1 0 0 -1 2 0 0 -2 1 0 0 -1 1 0 0 -3 2 0 0 -1 1 0 0 -3 2 0 0 -1 1 0 0 -3 2 0 0 -2 1 0 0 -1 1 0 0 -1 2 0 0 -2 1 0 0 -1 2 0 0 -3 1 0 0 -1 1 0 0 -2 2 0 0 -3 1 0 0 -2 2 0 0 -2 1 0 0 -1 1 0 0 -1 2 0 0 -2 1 0 0 -1 2 0 0 -2 1 0 0 -2 1 0 0 -3 -2 0 0 1 -2 0 0 2 -1 0 0 2 -2 0 0 2 -1 0 0 1 -1 0 0 2 -2 0 0 1 -3 0 0 1 -1 0 0 2 -1 0 0 1 -3 0 0 1 -2 0 0 2 -1 0 0 1 -1 0 0 2 -2 0 0 1 -1 0 0 1 -2 0 0 2 -1 0 0 1 -2 0 0 2 -1 0 0 1 -1 0 0 1 -2 0 0 3 -1 0 0 2 -3 0 0 -2 1 0 0 -1 2 0 0 -3 1 0 0 -1 2 0 0 -3 1 0 0 -2 1 0 0 -1 2 0 0 -3 1 0 0 -1 2 0 0 -3 1 0 0 -1 2 0 0 -2 1 0 0 -1 1 0 0 -3 2 0 0 -1 1 0 0 -2 2 0 0 -1 1 0 0 -3 1 0 0 -1 2 0 0 -3 1 0 0 -1 2 0 0 -3 1 0 0 -4 -1 0zm-26 -27l-1 0 0 2 -2 0 0 1 -1 0 0 1 -1 0 0 2 -2 0 0 1 -1 0 0 2 -1 0 0 1 -3 0 0 1 -2 0 0 2 -1 0 0 3 -1 0 0 2 -2 0 0 2 -1 0 0 1 -2 0 0 3 -1 0 0 1 -1 0 0 3 -2 0 0 1 -1 0 0 2 -2 0 0 1 -1 0 0 3 -1 0 0 1 -2 0 0 2 -1 0 0 1 -1 0 0 2 -2 0 0 1 -1 0 0 1 -2 0 0 2 -1 0 0 1 -1 0 0 2 -2 0 0 1 -1 0 0 1 -2 0 0 2 -1 0 0 1 -1 0 0 1 -2 0 0 2 -1 0 0 1 -2 0 0 2 -1 0 0 1 -1 0 0 1 -2 0 0 3 -1 0 0 2 -1 0 0 1 -2 0 0 1 -1 0 0 2 -2 0 0 1 -1 0 0 3 -1 0 0 1 -2 0 0 2 -1 0 0 2 -2 0 0 2 -1 0 0 3 -1 0 0 1 -2 0 0 3 -1 0 0 1 -2 0 0 4 -1 0 0 2 -1 0 0 1 -2 0 0 2 -1 0 0 1 -1 0 0 1 -2 0 0 3 -1 0 0 2 -2 0 0 3 -1 0 0 2 -1 0 0 5 -2 0 0 2 -1 0 0 3 -2 0 0 4 -1 0 0 4 -1 0 0 3 -2 0 0 4 -1 0 0 5 -2 0 0 6 -1 0 0 6 -1 0 0 6 2 0 0 -9 2 0 0 -5 1 0 0 -3 2 0 0 -6 1 0 0 -2 1 0 0 -5 2 0 0 -2 1 0 0 -5 2 0 0 -1 1 0 0 -4 1 0 0 -3 2 0 0 -1 1 0 0 -3 2 0 0 -1 1 0 0 -3 1 0 0 -3 2 0 0 -2 1 0 0 -2 1 0 0 -3 2 0 0 -2 1 0 0 -2 2 0 0 -2 1 0 0 -3 1 0 0 -1 2 0 0 -1 1 0 0 -2 2 0 0 -1 1 0 0 -3 1 0 0 -1 2 0 0 -2 1 0 0 -1 2 0 0 -3 1 0 0 -1 1 0 0 -2 2 0 0 -1 1 0 0 -1 1 0 0 -2 2 0 0 -1 1 0 0 -2 2 0 0 -1 1 0 0 -1 1 0 0 -2 2 0 0 -1 1 0 0 -2 2 0 0 -1 1 0 0 -1 1 0 0 -2 2 0 0 -1 1 0 0 -1 2 0 0 -2 1 0 0 -1 1 0 0 -3 2 0 0 -1 1 0 0 -2 1 0 0 -1 2 0 0 -2 3 0 0 -1 1 0 0 -1 1 0 0 -2 2 0 0 -1 1 0 0 -3 2 0 0 -1 1 0 0 -2 1 0 0 -1 2 0 0 -3 1 0 0 -3 2 0 0 -1 1 0 0 -1 1 0 0 -3 2 0 0 -2 1 0 0 -2 1 0 0 -2 2 0 0 -1 1 0 0 -2 2 0 0 -2 1 0 0 -3 -3 0 0 1zm121 20l2 0 0 3 1 0 0 2 2 0 0 3 1 0 0 1 1 0 0 3 2 0 0 2 3 0 0 1 3 0 0 1 1 0 0 2 3 0 0 1 3 0 0 2 1 0 0 1 1 0 0 1 3 0 0 2 2 0 0 1 1 0 0 2 1 0 0 2 2 0 0 2 1 0 0 2 1 0 0 3 2 0 0 3 1 0 0 3 2 0 0 4 1 0 0 8 -1 0 0 7 -2 0 0 4 -1 0 0 3 -2 0 0 4 -1 0 0 15 1 0 0 2 2 0 0 3 1 0 0 4 2 0 0 3 1 0 0 3 1 0 0 3 2 0 0 2 1 0 0 3 2 0 0 2 1 0 0 1 1 0 0 3 2 0 0 1 1 0 0 3 3 0 0 1 1 0 0 2 2 0 0 1 1 0 0 1 1 0 0 2 2 0 0 1 1 0 0 2 2 0 0 1 1 0 0 1 1 0 0 2 2 0 0 1 1 0 0 2 2 0 0 1 1 0 0 1 1 0 0 2 2 0 0 2 1 0 0 2 2 0 0 1 1 0 0 2 3 0 0 -2 -2 0 0 -1 -1 0 0 -3 -1 0 0 -1 -2 0 0 -2 -1 0 0 -1 -2 0 0 -1 -1 0 0 -3 -1 0 0 -2 -2 0 0 -1 -1 0 0 -1 -2 0 0 -3 -1 0 0 -2 -1 0 0 -1 -2 0 0 -1 -1 0 0 -2 -2 0 0 -1 -1 0 0 -1 -1 0 0 -3 -2 0 0 -2 -1 0 0 -2 -1 0 0 -2 -2 0 0 -3 -1 0 0 -1 -2 0 0 -3 -1 0 0 -3 -1 0 0 -4 -2 0 0 -1 -1 0 0 -4 -2 0 0 -4 -1 0 0 -24 1 0 0 -5 2 0 0 -12 -2 0 0 -4 -1 0 0 -7 -1 0 0 -3 -2 0 0 -3 -1 0 0 -2 -2 0 0 -3 -1 0 0 -2 -1 0 0 -1 -3 0 0 -1 -3 0 0 -2 -1 0 0 -1 -2 0 0 -2 -2 0 0 -1 -2 0 0 -1 -1 0 0 -2 -3 0 0 -1 -1 0 0 -2 -2 0 0 -1 -1 0 0 -1 -2 0 0 -2 -1 0 0 -1 -2 0 0 -1 -1 0 0 -2 -1 0 0 -3 -2 0 0 -1 -1 0 0 -1 -2 0 0 4zm-100 54l-1 0 0 1 -3 0 0 2 -1 0 0 1 -2 0 0 1 -1 0 0 2 -1 0 0 1 -3 0 0 2 -3 0 0 1 -2 0 0 1 -1 0 0 2 -3 0 0 3 -1 0 0 1 -2 0 0 1 -1 0 0 2 -1 0 0 1 -2 0 0 2 -1 0 0 2 -1 0 0 2 -2 0 0 3 -1 0 0 3 -2 0 0 1 -1 0 0 3 -1 0 0 4 -2 0 0 3 -1 0 0 2 -2 0 0 3 -1 0 0 3 -1 0 0 1 -2 0 0 3 -1 0 0 3 -2 0 0 1 -1 0 0 2 -1 0 0 1 -2 0 0 2 -1 0 0 1 -1 0 0 1 -2 0 0 2 -1 0 0 1 -2 0 0 1 -2 0 0 3 -2 0 0 2 -1 0 0 1 -2 0 0 3 -1 0 0 1 -1 0 0 2 -2 0 0 2 -1 0 0 3 -2 0 0 1 -1 0 0 3 -1 0 0 3 -2 0 0 4 2 0 0 -1 1 0 0 -3 1 0 0 -1 2 0 0 -2 1 0 0 -1 2 0 0 -2 1 0 0 -1 1 0 0 -1 2 0 0 -2 1 0 0 -1 2 0 0 -1 1 0 0 -2 1 0 0 -1 2 0 0 -2 1 0 0 -1 2 0 0 -3 2 0 0 -1 2 0 0 -3 1 0 0 -1 1 0 0 -2 2 0 0 -1 1 0 0 -1 2 0 0 -3 1 0 0 -2 1 0 0 -1 2 0 0 -3 1 0 0 -3 2 0 0 -1 1 0 0 -3 1 0 0 -3 2 0 0 -2 1 0 0 -3 2 0 0 -3 1 0 0 -3 1 0 0 -1 2 0 0 -3 1 0 0 -1 1 0 0 -3 2 0 0 -2 1 0 0 -1 2 0 0 -1 1 0 0 -3 1 0 0 -2 2 0 0 -1 1 0 0 -3 3 0 0 -1 2 0 0 -2 1 0 0 -1 1 0 0 -1 2 0 0 -2 1 0 0 -3 2 0 0 -1 1 0 0 -1 1 0 0 -2 2 0 0 -2 -2 0 0 1zm-72 -33l-2 0 0 1 -1 0 0 1 -1 0 0 2 -3 0 0 1 -1 0 0 2 -2 0 0 1 -3 0 0 1 -1 0 0 2 -1 0 0 1 -2 0 0 1 -1 0 0 2 -2 0 0 1 -1 0 0 2 -1 0 0 2 -2 0 0 2 -1 0 0 1 -2 0 0 2 -1 0 0 1 -1 0 0 1 -2 0 0 3 -1 0 0 2 -1 0 0 1 -2 0 0 3 -1 0 0 1 -2 0 0 1 -1 0 0 3 -1 0 0 3 -2 0 0 3 -1 0 0 1 -2 0 0 3 -1 0 0 1 -1 0 0 3 -2 0 0 2 -1 0 0 2 -2 0 0 5 -1 0 0 3 -1 0 0 2 -2 0 0 6 -1 0 0 3 -2 0 0 2 -1 0 0 5 -2 0 0 2 -1 0 0 5 -1 0 0 7 -2 0 0 4 -1 0 0 7 -2 0 0 7 -1 0 0 11 1 0 0 -3 2 0 0 -8 1 0 0 -5 2 0 0 -5 1 0 0 -3 1 0 0 -7 2 0 0 -4 1 0 0 -4 2 0 0 -3 1 0 0 -4 2 0 0 -4 1 0 0 -3 1 0 0 -3 2 0 0 -3 1 0 0 -4 2 0 0 -3 1 0 0 -1 1 0 0 -3 2 0 0 -3 1 0 0 -3 2 0 0 -1 1 0 0 -1 1 0 0 -3 2 0 0 -2 1 0 0 -2 2 0 0 -2 1 0 0 -3 1 0 0 -1 2 0 0 -3 1 0 0 -2 1 0 0 -2 2 0 0 -1 1 0 0 -2 2 0 0 -2 1 0 0 -2 1 0 0 -1 2 0 0 -2 1 0 0 -1 3 0 0 -1 1 0 0 -2 2 0 0 -1 1 0 0 -2 2 0 0 -1 1 0 0 -1 1 0 0 -2 2 0 0 -1 1 0 0 -3 1 0 0 -1 2 0 0 -2 1 0 0 -2 2 0 0 -2 -3 0 0 2zm72 -27l-1 0 0 2 -1 0 0 1 -2 0 0 1 -1 0 0 2 -2 0 0 1 -1 0 0 2 -1 0 0 1 -2 0 0 1 -1 0 0 2 -2 0 0 1 -1 0 0 1 -2 0 0 2 -1 0 0 1 -1 0 0 3 -2 0 0 1 -1 0 0 2 -2 0 0 1 -1 0 0 2 -1 0 0 2 -2 0 0 2 -1 0 0 3 -1 0 0 1 -2 0 0 3 -1 0 0 1 -2 0 0 1 -1 0 0 3 -1 0 0 2 -2 0 0 2 -1 0 0 2 -3 0 0 1 -1 0 0 2 -3 0 0 1 -3 0 0 1 -1 0 0 2 -2 0 0 1 -1 0 0 2 -1 0 0 1 -2 0 0 1 -1 0 0 2 -2 0 0 2 -1 0 0 2 -1 0 0 1 -2 0 0 2 -1 0 0 2 -2 0 0 2 -1 0 0 1 -1 0 0 3 -2 0 0 1 -1 0 0 3 -2 0 0 2 3 0 0 -2 2 0 0 -1 1 0 0 -2 1 0 0 -1 2 0 0 -1 1 0 0 -3 2 0 0 -2 2 0 0 -1 2 0 0 -1 1 0 0 -2 2 0 0 -1 1 0 0 -2 1 0 0 -1 3 0 0 -1 3 0 0 -2 1 0 0 -1 2 0 0 -1 1 0 0 -2 1 0 0 -1 2 0 0 -2 1 0 0 -1 2 0 0 -1 1 0 0 -3 1 0 0 -3 2 0 0 -1 1 0 0 -2 2 0 0 -1 1 0 0 -2 1 0 0 -1 2 0 0 -1 1 0 0 -2 1 0 0 -1 2 0 0 -1 1 0 0 -2 2 0 0 -1 1 0 0 -2 1 0 0 -1 2 0 0 -3 1 0 0 -1 2 0 0 -2 1 0 0 -1 2 0 0 -1 1 0 0 -3 1 0 0 -3 2 0 0 -1 1 0 0 -3 2 0 0 -3 1 0 0 -3 1 0 0 -1 2 0 0 -1 1 0 0 -3 -3 0 0 1zm-344 233l-5 0 0 1 -3 0 0 2 -4 0 0 1 -4 0 0 1 -4 0 0 2 -2 0 0 1 -3 0 0 1 -3 0 0 2 -4 0 0 1 -5 0 0 2 -6 0 0 1 -6 0 0 1 -4 0 0 2 -1 0 0 1 -3 0 0 2 -3 0 0 1 -2 0 0 1 -2 0 0 2 -1 0 0 1 -3 0 0 2 -3 0 0 1 -1 0 0 1 -2 0 0 2 -1 0 0 1 4 0 0 -1 2 0 0 -2 2 0 0 -1 2 0 0 -1 4 0 0 1 -1 0 0 1 -2 0 0 3 -1 0 0 1 -2 0 0 2 -1 0 0 1 -3 0 0 2 -1 0 0 1 -2 0 0 1 -1 0 0 2 -1 0 0 1 -2 0 0 3 -1 0 0 4 1 0 0 -1 2 0 0 -2 1 0 0 -1 1 0 0 -1 2 0 0 -2 1 0 0 -1 2 0 0 -3 1 0 0 -1 4 0 0 -2 4 0 0 -1 3 0 0 -2 3 0 0 -1 1 0 0 -1 3 0 0 -2 1 0 0 -1 2 0 0 -1 3 0 0 -2 1 0 0 -1 1 0 0 -2 2 0 0 -1 3 0 0 -1 1 0 0 -2 1 0 0 -1 2 0 0 -2 3 0 0 -1 1 0 0 -1 3 0 0 -2 1 0 0 -1 3 0 0 -2 3 0 0 -1 8 0 0 -1 4 0 0 -2 3 0 0 -1 2 0 0 -1 2 0 0 -2 3 0 0 -1 2 0 0 -2 -5 0 0 2zm574 -463l-1 0 0 2 3 0 0 1 2 0 0 2 5 0 0 1 1 0 0 1 1 0 0 3 -1 0 0 1 -3 0 0 2 -3 0 0 1 -1 0 0 2 -1 0 0 1 -2 0 0 1 -1 0 0 2 -2 0 0 1 -1 0 0 2 -2 0 0 1 -2 0 0 1 -2 0 0 2 -1 0 0 1 -2 0 0 2 -2 0 0 1 -2 0 0 1 -3 0 0 2 -1 0 0 1 -4 0 0 1 -6 0 0 -1 -7 0 0 -1 -4 0 0 1 -7 0 0 1 -1 0 0 3 12 0 0 2 5 0 0 1 1 0 0 3 4 0 0 -2 6 0 0 -1 4 0 0 -1 3 0 0 -2 1 0 0 -1 1 0 0 -2 2 0 0 -1 1 0 0 -1 2 0 0 -2 1 0 0 -1 1 0 0 -3 2 0 0 -1 1 0 0 -2 3 0 0 -1 2 0 0 -1 1 0 0 -2 1 0 0 -1 2 0 0 -2 1 0 0 -1 3 0 0 -1 1 0 0 -2 2 0 0 -1 1 0 0 -2 2 0 0 -1 1 0 0 -1 1 0 0 -2 2 0 0 -4 -2 0 0 -1 -4 0 0 -2 -5 0 0 -1 -9 0 0 1zm-49 403l2 0 0 2 1 0 0 3 1 0 0 3 2 0 0 3 1 0 0 5 2 0 0 7 1 0 0 6 -1 0 0 14 -2 0 0 -9 -1 0 0 -5 -2 0 0 -4 -2 0 0 7 1 0 0 21 -1 0 0 7 -2 0 0 4 -1 0 0 3 -1 0 0 4 -2 0 0 3 -1 0 0 2 -2 0 0 3 -1 0 0 4 -1 0 0 3 -2 0 0 4 2 0 0 -1 1 0 0 -4 1 0 0 -3 2 0 0 -1 1 0 0 -3 2 0 0 -2 1 0 0 -2 1 0 0 -3 2 0 0 -3 1 0 0 -1 1 0 0 -3 2 0 0 -1 1 0 0 -5 2 0 0 -1 1 0 0 -4 1 0 0 -3 2 0 0 -3 1 0 0 -9 2 0 0 -11 -2 0 0 -5 -1 0 0 -6 -2 0 0 -4 -1 0 0 -3 -1 0 0 -2 -2 0 0 -3 -1 0 0 -2 -2 0 0 -1 -1 0 0 -3 -3 0 0 2zm-328 -160l-2 0 0 1 -1 0 0 1 -3 0 0 2 -1 0 0 1 -3 0 0 2 -2 0 0 1 -1 0 0 1 -1 0 0 2 -2 0 0 1 -1 0 0 2 -2 0 0 1 -1 0 0 1 -1 0 0 2 -2 0 0 1 -1 0 0 2 -1 0 0 1 -2 0 0 1 -1 0 0 2 -2 0 0 1 -1 0 0 1 -1 0 0 2 -3 0 0 1 -2 0 0 2 -1 0 0 1 -3 0 0 1 -1 0 0 2 -3 0 0 1 -1 0 0 2 -3 0 0 1 -3 0 0 1 -4 0 0 2 -3 0 0 1 -3 0 0 2 -1 0 0 1 -3 0 0 1 -2 0 0 2 -3 0 0 1 -3 0 0 1 -1 0 0 2 -3 0 0 1 -2 0 0 2 -2 0 0 1 -2 0 0 1 -3 0 0 2 -2 0 0 1 -2 0 0 2 -2 0 0 1 -2 0 0 1 -3 0 0 2 -1 0 0 1 -2 0 0 2 -3 0 0 1 -1 0 0 1 -1 0 0 2 -2 0 0 1 -1 0 0 2 3 0 0 -2 2 0 0 -1 3 0 0 -2 3 0 0 -1 5 0 0 -1 2 0 0 -2 2 0 0 -1 2 0 0 -2 2 0 0 -1 3 0 0 -1 1 0 0 -2 3 0 0 -1 1 0 0 -2 3 0 0 -1 1 0 0 -1 2 0 0 -2 3 0 0 -1 1 0 0 -2 1 0 0 -1 2 0 0 -1 1 0 0 -2 3 0 0 -1 3 0 0 -1 2 0 0 -2 3 0 0 -1 3 0 0 -2 3 0 0 -1 1 0 0 -1 3 0 0 -2 1 0 0 -1 2 0 0 -2 2 0 0 -1 3 0 0 -1 2 0 0 -2 2 0 0 -1 3 0 0 -2 2 0 0 -1 1 0 0 -1 1 0 0 -2 2 0 0 -1 1 0 0 -1 1 0 0 -2 3 0 0 -1 2 0 0 -2 1 0 0 -1 1 0 0 -1 2 0 0 -2 1 0 0 -1 2 0 0 -2 1 0 0 -1 1 0 0 -1 2 0 0 -2 1 0 0 -1 2 0 0 -3 2 0 0 -3 -2 0 0 2zm64 209l0 -2 1 0 0 -4 2 0 0 -3 1 0 0 -4 1 0 0 -3 2 0 0 -3 1 0 0 -3 1 0 0 -1 2 0 0 -1 1 0 0 -3 2 0 0 -4 1 0 0 -3 1 0 0 -3 2 0 0 -1 1 0 0 -3 2 0 0 -1 1 0 0 -2 1 0 0 -1 2 0 0 -2 1 0 0 -1 2 0 0 -1 1 0 0 -2 1 0 0 -1 2 0 0 -1 1 0 0 -3 1 0 0 -2 2 0 0 -1 1 0 0 -1 2 0 0 -2 1 0 0 -1 1 0 0 -2 2 0 0 -2 1 0 0 -2 2 0 0 -1 1 0 0 -3 1 0 0 -3 -2 0 0 2 -2 0 0 1 -3 0 0 1 -1 0 0 2 -3 0 0 1 -1 0 0 2 -2 0 0 1 -1 0 0 1 -3 0 0 2 -1 0 0 1 -1 0 0 2 -2 0 0 1 -1 0 0 1 -2 0 0 2 -1 0 0 1 -1 0 0 2 -2 0 0 1 -1 0 0 3 -2 0 0 1 -1 0 0 3 -1 0 0 3 -2 0 0 4 -1 0 0 3 -2 0 0 5 -1 0 0 3 -1 0 0 3 -2 0 0 4 -1 0 0 3 -1 0 0 2 -2 0 0 4 -1 0 0 2 -2 0 0 9 2 0zm53 -101l-2 0 0 2 -1 0 0 1 -2 0 0 2 -1 0 0 1 -1 0 0 1 -2 0 0 3 -1 0 0 1 -2 0 0 2 -1 0 0 1 -1 0 0 2 -2 0 0 1 -1 0 0 1 -2 0 0 2 -1 0 0 1 -1 0 0 2 -3 0 0 1 -1 0 0 1 -2 0 0 2 -1 0 0 1 -3 0 0 1 -1 0 0 2 -2 0 0 1 -1 0 0 2 -2 0 0 1 -1 0 0 3 -1 0 0 3 -2 0 0 2 -1 0 0 2 -2 0 0 3 -1 0 0 4 -1 0 0 2 -2 0 0 3 -1 0 0 6 -1 0 0 3 -2 0 0 2 -1 0 0 3 -2 0 0 4 -1 0 0 4 -1 0 0 6 1 0 0 -3 1 0 0 -1 2 0 0 -4 1 0 0 -3 2 0 0 -4 1 0 0 -3 1 0 0 -3 2 0 0 -3 1 0 0 -2 1 0 0 -3 2 0 0 -2 1 0 0 -2 2 0 0 -3 1 0 0 -1 1 0 0 -3 2 0 0 -2 1 0 0 -1 2 0 0 -3 1 0 0 -1 1 0 0 -2 2 0 0 -1 3 0 0 -1 1 0 0 -2 1 0 0 -1 2 0 0 -2 1 0 0 -1 1 0 0 -1 2 0 0 -2 1 0 0 -1 2 0 0 -1 1 0 0 -2 1 0 0 -1 2 0 0 -3 1 0 0 -1 2 0 0 -2 1 0 0 -3 1 0 0 -2 2 0 0 -3 1 0 0 -1 2 0 0 -3 1 0 0 -3 -1 0 0 1zm35 -185l-2 0 0 4 -1 0 0 2 -2 0 0 1 -1 0 0 1 -1 0 0 2 -3 0 0 1 -3 0 0 1 -1 0 0 2 -2 0 0 1 -3 0 0 2 -1 0 0 1 -2 0 0 1 -1 0 0 2 -3 0 0 1 -3 0 0 2 -2 0 0 1 -4 0 0 1 -3 0 0 2 -3 0 0 1 -4 0 0 2 -2 0 0 1 -2 0 0 1 -3 0 0 2 -2 0 0 1 -2 0 0 2 -2 0 0 1 -1 0 0 2 -3 0 0 1 -1 0 0 3 -2 0 0 1 -1 0 0 2 -1 0 0 1 -2 0 0 3 -1 0 0 8 -2 0 0 6 3 0 0 -3 2 0 0 -2 1 0 0 -1 1 0 0 -3 2 0 0 -3 1 0 0 -1 2 0 0 -3 1 0 0 -1 1 0 0 -1 2 0 0 -2 1 0 0 -1 1 0 0 -2 2 0 0 -2 1 0 0 -2 2 0 0 -1 1 0 0 -2 1 0 0 -1 3 0 0 -2 2 0 0 -1 1 0 0 -1 3 0 0 -2 3 0 0 -1 2 0 0 -2 3 0 0 -1 6 0 0 -1 4 0 0 -2 3 0 0 -1 3 0 0 -2 2 0 0 -1 2 0 0 -1 1 0 0 -2 2 0 0 -1 1 0 0 -2 1 0 0 -1 2 0 0 -1 1 0 0 -2 2 0 0 -2 1 0 0 -2 1 0 0 -5 -2 0 0 1zm-51 522l0 -1 -4 0 0 1 -4 0 0 2 -3 0 0 1 -1 0 0 2 -3 0 0 1 -3 0 0 1 -1 0 0 2 -3 0 0 -2 1 0 0 -2 2 0 0 -2 1 0 0 -1 2 0 0 -2 1 0 0 -1 1 0 0 -1 3 0 0 -2 2 0 0 -1 1 0 0 -2 1 0 0 -1 2 0 0 -1 1 0 0 -2 3 0 0 -1 1 0 0 -2 2 0 0 -1 2 0 0 -3 -2 0 0 1 -3 0 0 2 -3 0 0 1 -3 0 0 2 -2 0 0 1 -3 0 0 2 -2 0 0 1 -2 0 0 1 -3 0 0 2 -2 0 0 1 -1 0 0 2 -1 0 0 1 -2 0 0 3 -1 0 0 1 -2 0 0 2 -1 0 0 1 -1 0 0 1 -2 0 0 9 2 0 0 5 1 0 0 2 3 0 0 -2 1 0 0 -1 2 0 0 -2 1 0 0 -1 1 0 0 -1 2 0 0 -2 1 0 0 -1 3 0 0 -1 1 0 0 -2 2 0 0 -1 1 0 0 -2 3 0 0 -1 3 0 0 -1 1 0 0 -2 1 0 0 -1 2 0 0 -2 1 0zm-252 -285l-3 0 0 1 -2 0 0 1 -3 0 0 2 -3 0 0 1 -1 0 0 2 -3 0 0 1 -1 0 0 1 -2 0 0 2 -3 0 0 1 -2 0 0 2 -2 0 0 1 -3 0 0 1 -2 0 0 2 -6 0 0 1 -3 0 0 2 -5 0 0 1 -4 0 0 1 -5 0 0 2 -4 0 0 1 -4 0 0 1 -1 0 0 2 -3 0 0 1 -1 0 0 2 -4 0 0 1 -2 0 0 1 -2 0 0 2 -1 0 0 2 -3 0 0 1 -1 0 0 1 -2 0 0 2 -2 0 0 2 -2 0 0 2 3 0 0 -2 3 0 0 -1 3 0 0 -1 4 0 0 -2 1 0 0 -1 5 0 0 -1 2 0 0 -2 3 0 0 -2 4 0 0 -1 3 0 0 -1 3 0 0 -2 3 0 0 -1 1 0 0 -2 4 0 0 -1 3 0 0 -1 3 0 0 -2 3 0 0 -1 2 0 0 -1 2 0 0 -2 1 0 0 -1 3 0 0 -2 3 0 0 -1 2 0 0 -1 3 0 0 -2 3 0 0 -1 3 0 0 -2 3 0 0 -1 1 0 0 -1 3 0 0 -2 2 0 0 -1 2 0 0 -2 3 0 0 -1 1 0 0 -1 1 0 0 -2 -4 0 0 2zm248 249l-1 0 0 1 -2 0 0 2 -1 0 0 1 -1 0 0 2 -2 0 0 1 -1 0 0 1 -2 0 0 2 -1 0 0 1 -1 0 0 1 -2 0 0 2 -1 0 0 1 -2 0 0 2 -1 0 0 1 -1 0 0 1 -2 0 0 2 -1 0 0 1 -2 0 0 2 -1 0 0 3 -1 0 0 1 -2 0 0 1 -1 0 0 3 -1 0 0 9 2 0 0 -2 2 0 0 -1 1 0 0 -2 1 0 0 -1 2 0 0 -1 1 0 0 -2 2 0 0 -1 1 0 0 -2 1 0 0 -1 2 0 0 -1 1 0 0 -2 2 0 0 -1 1 0 0 -2 1 0 0 -1 2 0 0 -2 1 0 0 -1 2 0 0 -1 1 0 0 -2 1 0 0 -1 3 0 0 -2 1 0 0 -1 2 0 0 -1 1 0 0 -2 2 0 0 -1 1 0 0 -1 1 0 0 -2 2 0 0 -1 1 0 0 -2 -3 0 0 2 -2 0 0 1 -3 0 0 2 -2 0 0 1 -2 0 0 -3 1 0 0 -1 1 0 0 -2 2 0 0 -2 -3 0 0 1zm-150 -146l3 0 0 1 2 0 0 2 2 0 0 1 1 0 0 1 3 0 0 2 1 0 0 1 3 0 0 2 1 0 0 1 2 0 0 1 1 0 0 2 2 0 0 1 1 0 0 1 3 0 0 2 1 0 0 1 2 0 0 2 1 0 0 1 1 0 0 1 2 0 0 2 1 0 0 1 3 0 0 2 1 0 0 1 2 0 0 1 2 0 0 2 2 0 0 1 1 0 0 2 3 0 0 1 1 0 0 1 3 0 0 2 8 0 0 -2 2 0 0 -1 1 0 0 -3 -1 0 0 -1 -3 0 0 -2 -3 0 0 -1 -2 0 0 -1 -5 0 0 -2 -1 0 0 -1 -3 0 0 -2 -3 0 0 -1 -1 0 0 -1 -3 0 0 -2 -1 0 0 -1 -3 0 0 -2 -1 0 0 -1 -3 0 0 -1 -1 0 0 -2 -3 0 0 -1 -2 0 0 -1 -1 0 0 -2 -1 0 0 -1 -3 0 0 -2 -3 0 0 -1 -1 0 0 -1 -3 0 0 -2 -3 0 0 -1 -3 0 0 -2 -4 0 0 -1 -1 0 0 3zm-66 -25l-5 0 0 1 -5 0 0 2 -6 0 0 1 -6 0 0 1 -4 0 0 2 -3 0 0 1 -4 0 0 2 -3 0 0 1 -3 0 0 1 -2 0 0 2 -3 0 0 1 5 0 0 -1 3 0 0 -2 3 0 0 -1 4 0 0 -1 6 0 0 -2 4 0 0 -1 7 0 0 -2 25 0 0 2 7 0 0 1 6 0 0 2 6 0 0 1 7 0 0 1 6 0 0 2 6 0 0 -2 -3 0 0 -1 -4 0 0 -1 -3 0 0 -2 -6 0 0 -1 -3 0 0 -2 -4 0 0 -1 -2 0 0 -1 -3 0 0 -2 -3 0 0 -1 -2 0 0 -2 -18 0 0 2zm261 -262l-2 0 0 1 -1 0 0 2 -1 0 0 1 -2 0 0 2 -1 0 0 1 -3 0 0 1 -2 0 0 2 -1 0 0 3 -1 0 0 1 -2 0 0 1 -3 0 0 2 -1 0 0 1 -1 0 0 2 -2 0 0 1 -1 0 0 3 -1 0 0 1 -2 0 0 3 -1 0 0 1 -2 0 0 2 -1 0 0 2 -1 0 0 3 -2 0 0 3 -1 0 0 1 -2 0 0 2 -1 0 0 3 -1 0 0 1 -2 0 0 1 -1 0 0 2 -2 0 0 1 -1 0 0 1 -1 0 0 2 -2 0 0 1 -1 0 0 2 -1 0 0 1 2 0 0 -1 2 0 0 -2 1 0 0 -1 1 0 0 -2 2 0 0 -1 1 0 0 -1 2 0 0 -2 1 0 0 -1 3 0 0 -1 1 0 0 -2 2 0 0 -1 1 0 0 -2 1 0 0 -1 3 0 0 -1 2 0 0 -2 1 0 0 -1 1 0 0 -2 2 0 0 -1 1 0 0 -1 1 0 0 -2 2 0 0 -1 1 0 0 -3 2 0 0 -1 1 0 0 -3 1 0 0 -1 2 0 0 -2 1 0 0 -3 2 0 0 -2 1 0 0 -2 2 0 0 -3 1 0 0 -1 1 0 0 -1 2 0 0 -2 1 0 0 -3 2 0 0 -1 1 0 0 -1 -4 0 0 1zm-302 203l-5 0 0 2 -4 0 0 1 -3 0 0 1 -2 0 0 2 -6 0 0 1 -3 0 0 1 -2 0 0 2 -2 0 0 1 -3 0 0 2 -2 0 0 1 -3 0 0 1 -2 0 0 2 -2 0 0 2 -3 0 0 1 -6 0 0 1 -5 0 0 2 -4 0 0 1 -4 0 0 1 -2 0 0 2 -2 0 0 1 -1 0 0 2 -3 0 0 1 -1 0 0 1 -2 0 0 2 -1 0 0 1 -1 0 0 2 -2 0 0 1 4 0 0 -1 3 0 0 -2 3 0 0 -1 3 0 0 -2 4 0 0 -1 4 0 0 -1 3 0 0 -2 3 0 0 -1 3 0 0 -2 2 0 0 -1 5 0 0 -1 1 0 0 -2 3 0 0 -1 3 0 0 -1 2 0 0 -2 2 0 0 -2 1 0 0 -1 3 0 0 -1 3 0 0 -2 1 0 0 -1 3 0 0 -2 3 0 0 -1 1 0 0 -1 6 0 0 -2 4 0 0 -1 3 0 0 -1 2 0 0 -3 -2 0 0 1zm-23 -29l-2 0 0 1 -3 0 0 2 -4 0 0 1 -9 0 0 2 -5 0 0 1 -4 0 0 1 -2 0 0 2 -1 0 0 1 -3 0 0 1 -1 0 0 2 -2 0 0 1 -3 0 0 2 -1 0 0 1 -2 0 0 1 -1 0 0 2 -1 0 0 1 -2 0 0 2 -1 0 0 1 -3 0 0 1 -1 0 0 3 -2 0 0 2 -1 0 0 1 4 0 0 -1 3 0 0 -2 3 0 0 -1 2 0 0 -2 2 0 0 -1 2 0 0 -1 2 0 0 -2 3 0 0 -1 3 0 0 -2 1 0 0 -1 3 0 0 -1 3 0 0 -2 2 0 0 -1 3 0 0 -2 3 0 0 -1 3 0 0 -1 3 0 0 -2 1 0 0 -1 1 0 0 -1 3 0 0 -2 2 0 0 -1 1 0 0 -2 3 0 0 -2 -2 0 0 1zm321 78l-2 0 0 1 -1 0 0 2 -2 0 0 1 -1 0 0 3 -2 0 0 1 -1 0 0 2 -1 0 0 1 -2 0 0 3 -1 0 0 1 -2 0 0 2 -1 0 0 1 -1 0 0 2 -2 0 0 1 -1 0 0 1 -1 0 0 2 -2 0 0 1 -1 0 0 1 -2 0 0 2 -1 0 0 1 -1 0 0 2 -2 0 0 1 -1 0 0 1 -2 0 0 3 -1 0 0 2 -1 0 0 2 -2 0 0 2 -1 0 0 1 -2 0 0 2 -1 0 0 1 -1 0 0 3 -2 0 0 2 -1 0 0 2 -1 0 0 1 -2 0 0 2 3 0 0 -2 1 0 0 -1 3 0 0 -2 3 0 0 -1 3 0 0 -1 2 0 0 -2 2 0 0 -1 1 0 0 -1 2 0 0 -2 1 0 0 -3 1 0 0 -1 2 0 0 -3 1 0 0 -1 2 0 0 -3 1 0 0 -3 1 0 0 -1 2 0 0 -3 1 0 0 -1 1 0 0 -3 2 0 0 -1 1 0 0 -3 2 0 0 -2 1 0 0 -1 1 0 0 -3 2 0 0 -1 1 0 0 -2 2 0 0 -4 1 0 0 -1 2 0 0 -2 1 0 0 -2 1 0 0 -2 -2 0 0 3zm-364 20l-4 0 0 1 -3 0 0 1 -3 0 0 2 -3 0 0 1 -2 0 0 1 -3 0 0 2 -3 0 0 1 -3 0 0 2 -2 0 0 1 -5 0 0 1 -1 0 0 3 -1 0 0 2 -2 0 0 1 -1 0 0 1 -2 0 0 2 -4 0 0 1 -1 0 0 2 -2 0 0 1 -1 0 0 1 -1 0 0 2 -2 0 0 1 -1 0 0 3 1 0 0 1 2 0 0 -1 2 0 0 -2 2 0 0 -1 1 0 0 -1 2 0 0 -2 1 0 0 -1 3 0 0 -1 1 0 0 -2 7 0 0 -1 3 0 0 -2 1 0 0 -1 3 0 0 -1 1 0 0 -2 2 0 0 -1 1 0 0 -2 2 0 0 -1 2 0 0 -1 2 0 0 -2 1 0 0 -1 3 0 0 -2 1 0 0 -1 3 0 0 -1 2 0 0 -2 4 0 0 -1 1 0 0 -1 1 0 0 -2 -5 0 0 2zm364 -360l-8 0 0 2 -2 0 0 1 -3 0 0 1 -2 0 0 2 -1 0 0 1 -1 0 0 3 1 0 0 1 6 0 0 -4 4 0 0 3 4 0 0 -6 2 0 0 2 1 0 0 1 3 0 0 2 3 0 0 -3 2 0 0 1 2 0 0 2 3 0 0 -5 2 0 0 3 2 0 0 2 1 0 0 1 2 0 0 1 1 0 0 3 3 0 0 2 4 0 0 -7 -2 0 0 -2 -1 0 0 -1 -1 0 0 -2 -2 0 0 -1 -2 0 0 -1 -3 0 0 -2 -4 0 0 -1 -14 0 0 1zm-193 17l-2 0 0 1 -3 0 0 2 -4 0 0 1 -4 0 0 1 -2 0 0 2 -4 0 0 1 -3 0 0 2 -4 0 0 1 -3 0 0 1 -3 0 0 2 -2 0 0 1 -3 0 0 2 -3 0 0 1 -10 0 0 1 -15 0 0 3 10 0 0 2 18 0 0 -2 1 0 0 -1 3 0 0 -2 3 0 0 -1 3 0 0 -1 2 0 0 -2 5 0 0 -1 2 0 0 -2 3 0 0 -1 2 0 0 -1 2 0 0 -2 3 0 0 -1 3 0 0 -2 1 0 0 -1 3 0 0 -1 1 0 0 -2 2 0 0 -1 1 0 0 -1 -3 0 0 1zm-133 234l-4 0 0 1 -6 0 0 2 -7 0 0 1 -5 0 0 1 -3 0 0 2 -3 0 0 1 -1 0 0 2 -4 0 0 1 -1 0 0 1 -1 0 0 2 -2 0 0 1 -1 0 0 2 -1 0 0 1 -2 0 0 1 -1 0 0 2 -2 0 0 1 -1 0 0 1 -1 0 0 2 -2 0 0 3 -1 0 0 1 -2 0 0 3 3 0 0 -2 2 0 0 -1 1 0 0 -1 1 0 0 -2 2 0 0 -1 1 0 0 -2 3 0 0 -1 1 0 0 -1 3 0 0 -2 1 0 0 -1 2 0 0 -1 3 0 0 -2 3 0 0 -1 3 0 0 -2 2 0 0 -1 2 0 0 -1 5 0 0 -2 3 0 0 -1 3 0 0 -2 3 0 0 -1 2 0 0 -1 2 0 0 -2 3 0 0 -1 2 0 0 -2 -5 0 0 2zm135 -217l-7 0 0 1 -6 0 0 1 -7 0 0 2 -2 0 0 1 -3 0 0 2 -2 0 0 1 -2 0 0 1 -2 0 0 2 -3 0 0 1 -4 0 0 1 -7 0 0 2 -32 0 0 1 3 0 0 2 3 0 0 1 18 0 0 -1 11 0 0 -2 7 0 0 -1 4 0 0 -2 6 0 0 -1 3 0 0 -1 1 0 0 -2 3 0 0 -1 3 0 0 -1 2 0 0 -2 3 0 0 -1 3 0 0 -2 5 0 0 -1 6 0 0 -3 -4 0 0 2zm-134 243l-3 0 0 2 -2 0 0 1 -5 0 0 1 -4 0 0 2 -5 0 0 1 -4 0 0 2 -3 0 0 1 -3 0 0 1 -1 0 0 2 -2 0 0 1 -2 0 0 2 -2 0 0 1 -2 0 0 1 -1 0 0 2 -3 0 0 1 -1 0 0 1 -2 0 0 2 -1 0 0 1 -1 0 0 3 -2 0 0 1 3 0 0 -1 3 0 0 -1 1 0 0 -2 3 0 0 -1 3 0 0 -2 2 0 0 -1 2 0 0 -1 4 0 0 -2 3 0 0 -1 3 0 0 -1 3 0 0 -2 1 0 0 -1 4 0 0 -2 2 0 0 -1 2 0 0 -1 3 0 0 -2 2 0 0 -1 1 0 0 -2 3 0 0 -1 1 0 0 -1 2 0 0 -3 -2 0 0 1zm304 -201l-3 0 0 1 -3 0 0 1 -1 0 0 2 -3 0 0 1 -2 0 0 2 -2 0 0 1 -2 0 0 1 -1 0 0 3 -2 0 0 3 -1 0 0 1 -1 0 0 4 -2 0 0 3 -1 0 0 2 -1 0 0 2 -2 0 0 3 -1 0 0 2 -2 0 0 4 2 0 0 -2 1 0 0 -1 3 0 0 -1 1 0 0 -2 3 0 0 -1 1 0 0 -2 2 0 0 -1 1 0 0 -1 2 0 0 -2 1 0 0 -1 1 0 0 -4 2 0 0 -3 1 0 0 -3 2 0 0 -1 1 0 0 -3 1 0 0 -1 2 0 0 -2 1 0 0 -1 2 0 0 -2 1 0 0 -2 1 0 0 -2 -2 0 0 2zm-13 428l-1 0 0 2 -3 0 0 1 -3 0 0 1 -1 0 0 2 -3 0 0 1 -3 0 0 2 -1 0 0 1 -2 0 0 1 -1 0 0 2 -1 0 0 1 -2 0 0 2 -1 0 0 1 -2 0 0 1 -1 0 0 2 -1 0 0 1 -2 0 0 3 -1 0 0 3 -2 0 0 2 -1 0 0 3 -1 0 0 4 2 0 0 -2 2 0 0 -2 3 0 0 -1 1 0 0 -3 1 0 0 -1 3 0 0 -2 2 0 0 -2 2 0 0 -2 2 0 0 -1 1 0 0 -3 2 0 0 -1 1 0 0 -2 1 0 0 -1 2 0 0 -2 1 0 0 -1 1 0 0 -1 2 0 0 -3 1 0 0 -2 2 0 0 -1 2 0 0 -1 2 0 0 -3 -3 0 0 1zm237 66l-3 0 0 3 -1 0 0 18 1 0 0 7 3 0 0 1 7 0 0 -5 -2 0 0 -6 -1 0 0 -18 -1 0 0 -1 -3 0 0 1zm-127 -720l0 3 -1 0 0 1 -2 0 0 1 -1 0 0 2 -1 0 0 3 -2 0 0 1 -1 0 0 3 1 0 0 -2 2 0 0 -1 2 0 0 -1 3 0 0 -2 3 0 0 -1 3 0 0 -2 2 0 0 -1 6 0 0 -1 3 0 0 -2 7 0 0 -1 5 0 0 -1 6 0 0 -3 -27 0 0 1 -1 0 0 2 -3 0 0 1 -4 0zm-406 387l-5 0 0 1 -2 0 0 2 -5 0 0 1 -4 0 0 2 -4 0 0 1 -1 0 0 1 -2 0 0 2 -1 0 0 1 -3 0 0 1 -2 0 0 2 -1 0 0 1 -1 0 0 2 -3 0 0 1 -1 0 0 1 -3 0 0 2 -2 0 0 3 -1 0 0 1 -1 0 0 1 -2 0 0 2 -1 0 0 1 -2 0 0 3 -1 0 0 1 3 0 0 -1 1 0 0 -1 2 0 0 -2 1 0 0 -1 1 0 0 -2 3 0 0 -1 2 0 0 -1 1 0 0 -2 1 0 0 -1 2 0 0 -2 2 0 0 -1 2 0 0 -1 2 0 0 -2 2 0 0 -1 3 0 0 -2 3 0 0 -1 3 0 0 -1 2 0 0 -2 3 0 0 -1 3 0 0 -1 1 0 0 -2 2 0 0 -1 3 0 0 -2 1 0 0 -1 1 0 0 -1 -2 0 0 1zm331 121l-1 0 0 2 -2 0 0 1 -1 0 0 1 -2 0 0 2 -1 0 0 2 -2 0 0 2 -1 0 0 1 -1 0 0 2 -2 0 0 1 -1 0 0 1 -2 0 0 2 -1 0 0 1 -1 0 0 2 -2 0 0 1 -1 0 0 1 -1 0 0 2 -2 0 0 1 -1 0 0 2 -2 0 0 1 -1 0 0 1 -1 0 0 3 -2 0 0 1 -1 0 0 2 -2 0 0 1 -1 0 0 2 -1 0 0 1 -3 0 0 1 -2 0 0 2 -1 0 0 1 -1 0 0 3 1 0 0 -1 3 0 0 -2 1 0 0 -1 2 0 0 -2 2 0 0 -1 2 0 0 -1 1 0 0 -2 2 0 0 -1 2 0 0 -2 2 0 0 -1 1 0 0 -1 2 0 0 -2 1 0 0 -1 1 0 0 -3 3 0 0 -1 1 0 0 -2 2 0 0 -1 1 0 0 -3 2 0 0 -1 1 0 0 -2 1 0 0 -1 2 0 0 -1 1 0 0 -3 2 0 0 -2 1 0 0 -2 2 0 0 -2 1 0 0 -2 1 0 0 -3 -1 0 0 1zm149 4l-1 0 0 4 -2 0 0 3 -1 0 0 3 -2 0 0 1 -1 0 0 6 -1 0 0 3 -2 0 0 3 -1 0 0 2 -1 0 0 3 -2 0 0 3 -1 0 0 3 -2 0 0 2 -1 0 0 5 -1 0 0 1 -2 0 0 3 -1 0 0 1 -2 0 0 3 -1 0 0 3 1 0 0 -2 2 0 0 -1 1 0 0 -3 2 0 0 -3 1 0 0 -1 3 0 0 -3 1 0 0 -1 2 0 0 -3 1 0 0 -3 1 0 0 -3 2 0 0 -1 1 0 0 -4 1 0 0 -3 2 0 0 -3 1 0 0 -2 2 0 0 -5 1 0 0 -5 1 0 0 -3 2 0 0 -4 -3 0 0 1zm32 -36l-1 0 0 6 -2 0 0 3 -1 0 0 2 -2 0 0 7 -1 0 0 4 -1 0 0 5 -2 0 0 2 -1 0 0 6 -2 0 0 4 -1 0 0 3 -1 0 0 5 1 0 0 -1 1 0 0 -3 2 0 0 -3 1 0 0 -2 2 0 0 -3 1 0 0 -4 1 0 0 -3 2 0 0 -3 1 0 0 -4 2 0 0 -3 1 0 0 -7 1 0 0 -11 2 0 0 -4 -3 0 0 4zm-458 -96l-2 0 0 1 -2 0 0 2 -3 0 0 1 -3 0 0 2 -1 0 0 1 -3 0 0 1 -3 0 0 2 -1 0 0 1 -2 0 0 2 -1 0 0 1 -1 0 0 1 -2 0 0 2 -1 0 0 1 -2 0 0 1 -1 0 0 2 -1 0 0 1 -2 0 0 2 4 0 0 -2 5 0 0 -1 2 0 0 -2 3 0 0 -1 1 0 0 -1 3 0 0 -2 2 0 0 -1 1 0 0 -1 1 0 0 -2 2 0 0 -1 1 0 0 -2 2 0 0 -1 1 0 0 -1 1 0 0 -2 2 0 0 -1 1 0 0 -2 2 0 0 -2 -3 0 0 1zm-92 148l0 -2 -3 0 0 2 -1 0 0 1 -3 0 0 1 -2 0 0 2 -1 0 0 1 -3 0 0 2 -1 0 0 1 -3 0 0 1 -3 0 0 2 -2 0 0 1 -3 0 0 1 -4 0 0 2 -2 0 0 1 -1 0 0 2 -3 0 0 1 -7 0 0 1 -1 0 0 2 -2 0 0 3 -1 0 0 1 -1 0 0 6 1 0 0 -2 1 0 0 -1 2 0 0 -2 1 0 0 -1 1 0 0 -1 3 0 0 -2 2 0 0 -1 1 0 0 -2 1 0 0 -1 3 0 0 -1 4 0 0 -2 9 0 0 -1 2 0 0 -2 2 0 0 -1 1 0 0 -1 2 0 0 -2 1 0 0 -1 1 0 0 -3 2 0 0 -1 3 0 0 -2 1 0 0 -1 1 0 0 -1 2 0zm524 -201l-2 0 0 13 2 0 0 7 1 0 0 3 1 0 0 4 2 0 0 1 1 0 0 3 2 0 0 1 1 0 0 3 1 0 0 3 2 0 0 1 1 0 0 2 1 0 0 1 2 0 0 -3 -2 0 0 -3 -1 0 0 -2 -1 0 0 -5 -2 0 0 -4 -1 0 0 -4 -1 0 0 -11 -2 0 0 -6 -1 0 0 6 -3 0 0 -11 -1 0 0 1zm-135 -14l-3 0 0 1 -2 0 0 2 -1 0 0 1 -3 0 0 2 -1 0 0 1 -2 0 0 1 -2 0 0 2 -2 0 0 1 -1 0 0 2 -3 0 0 2 -1 0 0 2 -2 0 0 1 -1 0 0 2 -2 0 0 1 -1 0 0 3 -2 0 0 3 -1 0 0 1 -1 0 0 3 -2 0 0 1 3 0 0 -1 1 0 0 -1 2 0 0 -2 1 0 0 -1 2 0 0 -2 1 0 0 -1 2 0 0 -2 1 0 0 -1 1 0 0 -1 2 0 0 -2 1 0 0 -1 3 0 0 -2 1 0 0 -1 2 0 0 -1 1 0 0 -2 2 0 0 -1 1 0 0 -2 1 0 0 -1 2 0 0 -1 1 0 0 -2 2 0 0 -1 1 0 0 -4 -1 0 0 1zm-45 293l-3 0 0 1 -3 0 0 1 -1 0 0 2 -4 0 0 -3 1 0 0 -1 -3 0 0 1 -3 0 0 3 -2 0 0 1 -2 0 0 3 -1 0 0 10 -1 0 0 1 -2 0 0 4 2 0 0 -1 1 0 0 -1 1 0 0 -2 2 0 0 -1 1 0 0 -2 1 0 0 -1 2 0 0 -1 1 0 0 -2 2 0 0 -1 1 0 0 -2 1 0 0 -1 2 0 0 -1 1 0 0 -2 2 0 0 -1 2 0 0 -2 2 0 0 -1 3 0 0 -1 1 0 0 -2 -4 0 0 2zm235 -229l-1 0 0 10 1 0 0 12 2 0 0 6 1 0 0 6 1 0 0 5 2 0 0 4 1 0 0 4 1 0 0 21 2 0 0 -23 -2 0 0 -9 -1 0 0 -4 -1 0 0 -7 -2 0 0 -7 -1 0 0 -12 -1 0 0 -10 1 0 0 -4 -3 0 0 8zm-486 -12l-3 0 0 1 -2 0 0 2 -3 0 0 1 -2 0 0 1 -2 0 0 2 -5 0 0 1 -1 0 0 2 -1 0 0 1 -2 0 0 1 -1 0 0 2 -1 0 0 1 -2 0 0 3 -1 0 0 3 -2 0 0 1 -1 0 0 1 1 0 0 2 2 0 0 -2 3 0 0 -1 1 0 0 -1 3 0 0 -2 1 0 0 -1 1 0 0 -2 2 0 0 -1 1 0 0 -1 2 0 0 -2 1 0 0 -1 1 0 0 -1 3 0 0 -2 2 0 0 -1 1 0 0 -2 1 0 0 -1 2 0 0 -1 1 0 0 -2 2 0 0 -1 1 0 0 -2 -3 0 0 2zm-57 7l-3 0 0 1 -4 0 0 2 -3 0 0 1 -4 0 0 1 -4 0 0 2 -1 0 0 1 -2 0 0 1 -1 0 0 2 -3 0 0 1 -2 0 0 2 -1 0 0 1 -1 0 0 1 -2 0 0 2 -2 0 0 3 -3 0 0 2 -2 0 0 2 -1 0 0 1 -1 0 0 1 2 0 0 -1 2 0 0 -1 1 0 0 -2 3 0 0 -1 1 0 0 -1 2 0 0 -2 1 0 0 -1 3 0 0 -2 3 0 0 -1 1 0 0 -1 2 0 0 -2 3 0 0 -1 2 0 0 -2 3 0 0 -1 1 0 0 -1 3 0 0 -2 3 0 0 -1 3 0 0 -1 1 0 0 -2 3 0 0 -1 1 0 0 -2 -4 0 0 2zm-3 100l-5 0 0 1 -7 0 0 2 -4 0 0 1 -6 0 0 2 -3 0 0 1 -3 0 0 1 -2 0 0 2 -2 0 0 1 -3 0 0 2 -1 0 0 1 -1 0 0 1 -2 0 0 2 4 0 0 -2 3 0 0 -1 4 0 0 -1 3 0 0 -2 6 0 0 -1 4 0 0 -2 2 0 0 -1 5 0 0 -1 3 0 0 -2 1 0 0 -1 3 0 0 -2 3 0 0 -2 -2 0 0 1zm134 -145l-3 0 0 1 -4 0 0 2 -5 0 0 1 -3 0 0 2 -2 0 0 1 -2 0 0 1 -3 0 0 2 -3 0 0 1 -3 0 0 2 -1 0 0 1 -3 0 0 2 -1 0 0 1 -2 0 0 1 -1 0 0 2 -2 0 0 1 -1 0 0 2 -2 0 0 2 2 0 0 -1 3 0 0 -1 3 0 0 -2 1 0 0 -1 3 0 0 -2 1 0 0 -1 2 0 0 -1 2 0 0 -2 3 0 0 -1 3 0 0 -2 3 0 0 -1 3 0 0 -2 2 0 0 -1 3 0 0 -1 2 0 0 -2 2 0 0 -1 2 0 0 -2 2 0 0 -1 2 0 0 -1 -3 0 0 1zm231 38l-1 0 0 1 -2 0 0 3 -1 0 0 1 -3 0 0 2 -1 0 0 3 -1 0 0 1 -2 0 0 1 -1 0 0 2 -3 0 0 1 -1 0 0 1 -2 0 0 2 -1 0 0 3 -2 0 0 1 -1 0 0 6 -1 0 0 2 1 0 0 -1 3 0 0 -1 1 0 0 -2 2 0 0 -1 1 0 0 -2 1 0 0 -1 2 0 0 -3 1 0 0 -1 2 0 0 -2 1 0 0 -1 1 0 0 -1 2 0 0 -3 1 0 0 -1 1 0 0 -2 2 0 0 -3 1 0 0 -2 2 0 0 -2 1 0 0 -3 -3 0 0 2zm-234 -25l-2 0 0 1 -3 0 0 2 -3 0 0 1 -1 0 0 1 -3 0 0 2 -3 0 0 1 -3 0 0 2 -1 0 0 1 -3 0 0 1 -1 0 0 2 -2 0 0 1 -2 0 0 1 -2 0 0 2 -1 0 0 1 -2 0 0 2 -1 0 0 2 1 0 0 -1 3 0 0 -1 2 0 0 -2 2 0 0 -1 3 0 0 -2 4 0 0 -1 3 0 0 -1 3 0 0 -2 1 0 0 -1 3 0 0 -1 1 0 0 -2 2 0 0 -1 1 0 0 -2 2 0 0 -1 1 0 0 -1 3 0 0 -2 1 0 0 -3 -3 0 0 2zm330 -87l2 0 0 5 1 0 0 2 2 0 0 3 1 0 0 1 1 0 0 3 2 0 0 2 1 0 0 1 3 0 0 1 3 0 0 2 1 0 0 1 4 0 0 2 2 0 0 1 1 0 0 1 1 0 0 2 2 0 0 1 1 0 0 3 2 0 0 4 1 0 0 4 3 0 0 -4 -2 0 0 -4 -1 0 0 -4 -1 0 0 -2 -2 0 0 -1 -1 0 0 -1 -2 0 0 -2 -1 0 0 -1 -1 0 0 -2 -3 0 0 -1 -3 0 0 -1 -1 0 0 -2 -2 0 0 -1 -1 0 0 -2 -1 0 0 -1 -2 0 0 -1 -1 0 0 -2 -2 0 0 -2 -1 0 0 -2 -1 0 0 -3 -2 0 0 -1 -1 0 0 -1 -2 0 0 2zm-404 98l-2 0 0 1 -3 0 0 2 -2 0 0 1 -2 0 0 1 -2 0 0 2 -1 0 0 1 -2 0 0 2 -2 0 0 2 -2 0 0 2 -1 0 0 1 -1 0 0 2 -2 0 0 2 -1 0 0 2 -2 0 0 1 -1 0 0 2 -1 0 0 2 2 0 0 -1 2 0 0 -1 1 0 0 -2 2 0 0 -1 1 0 0 -2 3 0 0 -1 1 0 0 -1 1 0 0 -2 3 0 0 -1 2 0 0 -2 1 0 0 -1 1 0 0 -1 2 0 0 -2 1 0 0 -1 2 0 0 -2 1 0 0 -1 1 0 0 -1 2 0 0 -3 1 0 0 -1 -3 0 0 1zm219 128l-1 0 0 3 -2 0 0 1 -1 0 0 6 -2 0 0 1 -1 0 0 6 -1 0 0 4 -2 0 0 4 -1 0 0 7 3 0 0 -3 1 0 0 -1 1 0 0 -3 2 0 0 -4 1 0 0 -4 2 0 0 -5 1 0 0 -2 1 0 0 -9 2 0 0 -4 -3 0 0 3zm-217 -78l-3 0 0 1 -1 0 0 2 -3 0 0 1 -9 0 0 1 -2 0 0 2 -2 0 0 1 -1 0 0 2 -3 0 0 1 -1 0 0 3 -2 0 0 1 -1 0 0 2 -1 0 0 1 -2 0 0 3 2 0 0 -2 1 0 0 -1 3 0 0 -1 3 0 0 -2 2 0 0 -1 3 0 0 -2 3 0 0 -1 1 0 0 -1 3 0 0 -2 1 0 0 -1 3 0 0 -2 3 0 0 -1 1 0 0 -1 2 0 0 -2 1 0 0 -3 -1 0 0 2zm-137 230l0 -2 -4 0 0 2 -4 0 0 1 -3 0 0 1 -4 0 0 2 -3 0 0 1 -3 0 0 2 -1 0 0 1 -1 0 0 1 -2 0 0 2 -1 0 0 1 -1 0 0 2 -2 0 0 1 -1 0 0 1 -2 0 0 3 -1 0 0 2 -1 0 0 2 1 0 0 -1 1 0 0 -1 2 0 0 -2 1 0 0 -1 3 0 0 -2 1 0 0 -1 2 0 0 -1 2 0 0 -2 2 0 0 -1 3 0 0 -2 1 0 0 -1 1 0 0 -1 3 0 0 -2 3 0 0 -1 3 0 0 -2 1 0 0 -1 3 0 0 -1 1 0zm170 -361l-5 0 0 1 -3 0 0 2 -3 0 0 1 -3 0 0 2 -3 0 0 1 -2 0 0 1 -3 0 0 2 -3 0 0 1 -3 0 0 2 -1 0 0 1 -1 0 0 1 5 0 0 -1 3 0 0 -1 3 0 0 -2 4 0 0 -1 4 0 0 -2 1 0 0 -1 3 0 0 -1 3 0 0 -2 4 0 0 -1 3 0 0 -2 3 0 0 -1 1 0 0 -1 -7 0 0 1zm408 228l-1 0 0 2 -1 0 0 3 -2 0 0 2 -1 0 0 6 -2 0 0 1 -1 0 0 4 -1 0 0 5 -2 0 0 7 -1 0 0 7 -2 0 0 1 3 0 0 -3 2 0 0 -4 1 0 0 -3 1 0 0 -4 2 0 0 -1 1 0 0 -6 2 0 0 -4 1 0 0 -6 1 0 0 -4 2 0 0 -5 -2 0 0 2zm-295 -33l1 0 0 7 2 0 0 4 1 0 0 6 1 0 0 4 2 0 0 3 1 0 0 4 2 0 0 4 1 0 0 4 2 0 0 2 1 0 0 -3 -1 0 0 -6 -2 0 0 -5 -1 0 0 -7 -2 0 0 -4 -1 0 0 -3 -2 0 0 -9 -1 0 0 -5 -1 0 0 -7 -3 0 0 11zm102 171l-3 0 0 2 -2 0 0 1 -2 0 0 1 -2 0 0 2 -1 0 0 1 -3 0 0 2 -1 0 0 1 -3 0 0 1 -1 0 0 2 -2 0 0 1 -1 0 0 2 -2 0 0 2 -1 0 0 2 -1 0 0 1 -2 0 0 1 -1 0 0 3 3 0 0 -1 1 0 0 -2 1 0 0 -1 3 0 0 -1 2 0 0 -2 1 0 0 -1 3 0 0 -1 1 0 0 -2 1 0 0 -1 2 0 0 -2 1 0 0 -1 2 0 0 -1 1 0 0 -2 1 0 0 -1 2 0 0 -2 1 0 0 -1 2 0 0 -1 1 0 0 -3 -1 0 0 1zm-394 39l-2 0 0 7 2 0 0 7 1 0 0 6 1 0 0 7 2 0 0 3 1 0 0 -2 2 0 0 -15 -2 0 0 -10 -1 0 0 -1 -2 0 0 -3 -2 0 0 1zm444 -313l-1 0 0 1 -3 0 0 2 -2 0 0 1 -2 0 0 2 -3 0 0 1 -2 0 0 1 -1 0 0 2 -1 0 0 1 -2 0 0 2 -1 0 0 1 -2 0 0 4 -1 0 0 4 -1 0 0 3 -2 0 0 1 3 0 0 -2 1 0 0 -2 2 0 0 -1 1 0 0 -2 2 0 0 -1 1 0 0 -1 1 0 0 -2 2 0 0 -1 1 0 0 -1 2 0 0 -2 1 0 0 -1 1 0 0 -3 2 0 0 -1 1 0 0 -2 2 0 0 -1 1 0 0 -2 1 0 0 -2 -1 0 0 1zm127 11l0 -1 -3 0 0 1 -2 0 0 2 -2 0 0 1 -2 0 0 1 -2 0 0 2 -2 0 0 1 -3 0 0 1 -1 0 0 2 -1 0 0 1 -2 0 0 2 -1 0 0 1 -2 0 0 1 -1 0 0 3 -1 0 0 2 -2 0 0 2 -1 0 0 2 -2 0 0 2 3 0 0 -2 2 0 0 -2 1 0 0 -1 3 0 0 -1 1 0 0 -2 2 0 0 -1 1 0 0 -2 1 0 0 -1 2 0 0 -1 1 0 0 -2 2 0 0 -1 1 0 0 -2 1 0 0 -1 3 0 0 -3 1 0 0 -1 2 0 0 -1 1 0 0 -2 2 0zm-292 98l2 0 0 5 1 0 0 4 2 0 0 3 1 0 0 4 1 0 0 3 2 0 0 4 1 0 0 4 1 0 0 3 2 0 0 2 1 0 0 -5 -1 0 0 -2 -2 0 0 -5 -1 0 0 -4 -1 0 0 -4 -2 0 0 -8 -1 0 0 -7 -1 0 0 -4 -2 0 0 -3 -3 0 0 10zm392 -328l-1 0 0 14 -2 0 0 9 -1 0 0 6 -2 0 0 5 2 0 0 -2 1 0 0 -5 2 0 0 -3 1 0 0 -3 1 0 0 -4 2 0 0 -22 -3 0 0 5zm-114 -107l-3 0 0 1 -3 0 0 2 -3 0 0 1 -1 0 0 2 -1 0 0 2 1 0 0 -1 3 0 0 -1 1 0 0 -2 3 0 0 -1 3 0 0 -2 5 0 0 2 3 0 0 1 1 0 0 3 -4 0 0 -1 -2 0 0 8 2 0 0 -1 3 0 0 -3 1 0 0 -2 3 0 0 -1 2 0 0 -1 1 0 0 -3 -3 0 0 -2 -1 0 0 -1 -4 0 0 -1 -7 0 0 1zm-163 533l-3 0 0 2 -3 0 0 1 -1 0 0 1 -2 0 0 2 -3 0 0 2 -1 0 0 2 -1 0 0 2 -2 0 0 2 -1 0 0 2 -1 0 0 3 2 0 0 -2 3 0 0 -1 1 0 0 -2 2 0 0 -1 1 0 0 -1 2 0 0 -2 1 0 0 -1 3 0 0 -1 1 0 0 -2 2 0 0 -2 1 0 0 -1 1 0 0 -1 2 0 0 -2 1 0 0 -1 -5 0 0 1zm285 -408l-1 0 0 3 -1 0 0 6 -2 0 0 5 -1 0 0 3 -2 0 0 4 -1 0 0 6 -1 0 0 4 2 0 0 -3 2 0 0 -3 1 0 0 -2 2 0 0 -5 1 0 0 -1 1 0 0 -4 2 0 0 -14 -2 0 0 1zm-671 457l-4 0 0 2 -4 0 0 1 -3 0 0 1 -3 0 0 2 -1 0 0 1 -3 0 0 2 -2 0 0 1 -2 0 0 3 -2 0 0 1 -1 0 0 1 -1 0 0 2 -2 0 0 1 3 0 0 -1 1 0 0 -2 3 0 0 -1 3 0 0 -1 3 0 0 -2 1 0 0 -1 4 0 0 -1 2 0 0 -2 2 0 0 -1 2 0 0 -2 1 0 0 -1 3 0 0 -1 1 0 0 -2 2 0 0 -1 -3 0 0 1zm557 -259l-3 0 0 2 -2 0 0 1 -2 0 0 1 -3 0 0 2 -1 0 0 1 -1 0 0 2 -2 0 0 1 -1 0 0 1 -2 0 0 2 -1 0 0 3 -1 0 0 2 -2 0 0 4 -1 0 0 3 -2 0 0 3 2 0 0 -1 1 0 0 -2 2 0 0 -3 1 0 0 -1 1 0 0 -1 2 0 0 -3 1 0 0 -1 2 0 0 -2 1 0 0 -3 1 0 0 -1 2 0 0 -1 1 0 0 -2 2 0 0 -1 1 0 0 -2 1 0 0 -1 3 0 0 -1 1 0 0 -3 -1 0 0 1zm-260 102l1 0 0 7 1 0 0 4 2 0 0 6 1 0 0 2 2 0 0 5 1 0 0 5 3 0 0 -4 -2 0 0 -7 -1 0 0 -3 -1 0 0 -7 -2 0 0 -5 -1 0 0 -10 -2 0 0 -2 -2 0 0 9zm-292 143l-2 0 0 2 -3 0 0 1 -4 0 0 1 -3 0 0 2 -1 0 0 1 -3 0 0 2 -2 0 0 1 -1 0 0 1 -1 0 0 2 -2 0 0 1 -1 0 0 3 4 0 0 -1 1 0 0 -2 3 0 0 -1 2 0 0 -2 2 0 0 -1 3 0 0 -1 2 0 0 -2 1 0 0 -1 3 0 0 -2 1 0 0 -1 1 0 0 -1 2 0 0 -3 -2 0 0 1zm379 17l-1 0 0 1 -2 0 0 3 -2 0 0 2 -2 0 0 1 -1 0 0 1 -3 0 0 2 -1 0 0 1 -2 0 0 1 -1 0 0 2 -1 0 0 1 -2 0 0 3 -1 0 0 1 -2 0 0 3 -1 0 0 2 3 0 0 -2 1 0 0 -1 2 0 0 -2 1 0 0 -1 3 0 0 -1 1 0 0 -2 1 0 0 -1 2 0 0 -2 1 0 0 -1 2 0 0 -1 1 0 0 -2 1 0 0 -2 2 0 0 -2 1 0 0 -1 2 0 0 -2 1 0 0 -2 -3 0 0 1zm-4 -59l-4 0 0 2 -3 0 0 1 -1 0 0 1 -2 0 0 2 -1 0 0 1 -1 0 0 3 -2 0 0 6 3 0 0 -1 1 0 0 -2 2 0 0 -2 1 0 0 -1 1 0 0 -1 2 0 0 -2 1 0 0 -1 2 0 0 -2 2 0 0 -1 3 0 0 -1 2 0 0 -3 -6 0 0 1zm237 138l-3 0 0 2 -1 0 0 1 -2 0 0 2 -3 0 0 1 -1 0 0 1 -1 0 0 2 -3 0 0 1 -1 0 0 2 -2 0 0 1 -3 0 0 1 -1 0 0 3 -1 0 0 2 2 0 0 -2 5 0 0 -1 1 0 0 -2 3 0 0 -1 1 0 0 -1 3 0 0 -2 1 0 0 -1 2 0 0 -2 1 0 0 -1 1 0 0 -1 2 0 0 -2 1 0 0 -3 2 0 0 -1 -3 0 0 1zm-248 38l-1 0 0 6 1 0 0 4 1 0 0 4 2 0 0 3 1 0 0 2 1 0 0 5 2 0 0 1 1 0 0 -7 -1 0 0 -7 -2 0 0 -8 -1 0 0 -3 -1 0 0 -1 -3 0 0 1zm-380 -92l-4 0 0 1 -3 0 0 2 -2 0 0 1 -2 0 0 2 -3 0 0 1 -1 0 0 1 -2 0 0 2 -1 0 0 1 -2 0 0 1 -1 0 0 3 -1 0 0 2 -2 0 0 1 3 0 0 -1 1 0 0 -2 2 0 0 -1 3 0 0 -2 2 0 0 -1 2 0 0 -1 1 0 0 -2 3 0 0 -1 1 0 0 -1 3 0 0 -2 1 0 0 -1 3 0 0 -2 2 0 0 -2 -3 0 0 1zm32 -77l-3 0 0 2 -4 0 0 1 -2 0 0 1 -2 0 0 2 -2 0 0 2 -1 0 0 1 -2 0 0 3 -1 0 0 4 4 0 0 -2 2 0 0 -1 1 0 0 -1 1 0 0 -2 2 0 0 -1 3 0 0 -1 1 0 0 -2 1 0 0 -2 2 0 0 -1 1 0 0 -3 2 0 0 -1 -3 0 0 1zm184 -214l-3 0 0 1 -1 0 0 2 -3 0 0 1 -2 0 0 2 -1 0 0 1 -1 0 0 1 -3 0 0 2 -3 0 0 1 -3 0 0 2 -1 0 0 1 -1 0 0 1 -2 0 0 2 -1 0 0 1 -3 0 0 3 3 0 0 -1 1 0 0 -2 3 0 0 -1 1 0 0 -2 3 0 0 -1 3 0 0 -1 3 0 0 -2 1 0 0 -1 3 0 0 -2 1 0 0 -1 2 0 0 -1 1 0 0 -2 1 0 0 -1 2 0 0 -2 3 0 0 -2 -3 0 0 1zm55 114l2 0 0 7 1 0 0 3 1 0 0 3 2 0 0 4 1 0 0 4 2 0 0 3 1 0 0 3 1 0 0 2 2 0 0 2 1 0 0 1 2 0 0 -3 -2 0 0 -2 -1 0 0 -3 -2 0 0 -4 -1 0 0 -3 -1 0 0 -6 -2 0 0 -5 -1 0 0 -6 -2 0 0 -1 -1 0 0 -2 -3 0 0 3zm418 -294l-1 0 0 6 -2 0 0 4 -1 0 0 10 -1 0 0 5 1 0 0 -1 1 0 0 -3 2 0 0 -3 1 0 0 -2 2 0 0 -7 1 0 0 -12 -1 0 0 -1 -2 0 0 4zm-23 -41l-2 0 0 8 -1 0 0 7 -2 0 0 7 -1 0 0 4 1 0 0 -1 2 0 0 -5 1 0 0 -2 2 0 0 -5 1 0 0 -6 1 0 0 -16 -1 0 0 -1 -1 0 0 10zm-644 150l1 0 0 1 2 0 0 2 3 0 0 1 1 0 0 1 1 0 0 2 3 0 0 1 6 0 0 2 15 0 0 -3 -7 0 0 -2 -8 0 0 -1 -4 0 0 -1 -3 0 0 -2 -4 0 0 -1 -3 0 0 -1 -3 0 0 1zm618 448l2 0 0 6 1 0 0 6 1 0 0 4 -1 0 0 1 6 0 0 -4 -2 0 0 -6 -1 0 0 -9 -2 0 0 -5 -1 0 0 -5 -3 0 0 12zm-618 -143l-3 0 0 1 -3 0 0 2 -4 0 0 1 -1 0 0 2 -3 0 0 2 -1 0 0 2 -2 0 0 3 -1 0 0 1 6 0 0 -1 1 0 0 -2 1 0 0 -1 3 0 0 -2 1 0 0 -1 2 0 0 -1 3 0 0 -2 1 0 0 -1 1 0 0 -2 2 0 0 -1 1 0 0 -1 -4 0 0 1zm432 -269l-2 0 0 1 -2 0 0 2 -2 0 0 1 -2 0 0 2 -2 0 0 1 -3 0 0 1 -1 0 0 2 -1 0 0 1 -2 0 0 2 -1 0 0 4 1 0 0 -2 3 0 0 -1 4 0 0 -1 2 0 0 -2 1 0 0 -1 1 0 0 -2 2 0 0 -1 1 0 0 -1 1 0 0 -2 2 0 0 -1 1 0 0 -2 2 0 0 -2 -3 0 0 1zm100 215l-1 0 0 1 -2 0 0 3 -1 0 0 4 -1 0 0 1 -2 0 0 3 -1 0 0 4 -2 0 0 2 -1 0 0 2 -2 0 0 3 -1 0 0 3 -1 0 0 1 -2 0 0 2 -1 0 0 2 -2 0 0 3 -1 0 0 3 1 0 0 -1 2 0 0 -2 1 0 0 -3 2 0 0 -1 1 0 0 -1 1 0 0 -3 2 0 0 -1 1 0 0 -3 2 0 0 -3 1 0 0 -4 2 0 0 -3 1 0 0 -3 1 0 0 -3 2 0 0 -2 1 0 0 -3 2 0 0 -3 -2 0 0 2zm-414 -333l-11 0 0 1 11 0 0 1 6 0 0 2 6 0 0 1 6 0 0 2 6 0 0 -3 -4 0 0 -2 -3 0 0 -1 -4 0 0 -1 -7 0 0 -2 -6 0 0 2zm6 138l-3 0 0 1 -3 0 0 2 -2 0 0 1 -3 0 0 1 -2 0 0 2 -1 0 0 1 -1 0 0 2 -2 0 0 1 -1 0 0 1 -1 0 0 2 -2 0 0 1 -1 0 0 1 4 0 0 -1 1 0 0 -1 3 0 0 -2 1 0 0 -1 2 0 0 -1 1 0 0 -2 3 0 0 -1 3 0 0 -2 1 0 0 -1 3 0 0 -1 1 0 0 -2 2 0 0 -3 -3 0 0 2zm479 335l-1 0 0 2 -2 0 0 1 -3 0 0 1 -1 0 0 2 -3 0 0 1 -1 0 0 1 -3 0 0 2 -3 0 0 3 -1 0 0 1 -1 0 0 1 -2 0 0 3 2 0 0 -1 2 0 0 -2 3 0 0 -1 3 0 0 -1 1 0 0 -2 3 0 0 -1 1 0 0 -2 2 0 0 -1 1 0 0 -1 2 0 0 -2 1 0 0 -2 1 0 0 -2 2 0 0 -1 -3 0 0 1zm-170 -294l-1 0 0 2 -2 0 0 1 -2 0 0 3 -2 0 0 1 -1 0 0 2 -1 0 0 3 -2 0 0 1 -1 0 0 1 -2 0 0 3 -1 0 0 3 -1 0 0 1 -2 0 0 3 2 0 0 -1 1 0 0 -2 1 0 0 -1 2 0 0 -2 1 0 0 -1 2 0 0 -1 1 0 0 -2 1 0 0 -1 2 0 0 -3 1 0 0 -1 3 0 0 -3 1 0 0 -3 2 0 0 -4 -2 0 0 1zm-7 -235l3 0 0 1 1 0 0 2 2 0 0 1 4 0 0 2 3 0 0 1 1 0 0 6 2 0 0 1 2 0 0 -3 -1 0 0 -7 -1 0 0 -1 -2 0 0 -2 -1 0 0 -1 -4 0 0 -1 -5 0 0 -2 -1 0 0 -1 -3 0 0 4zm-239 63l-10 0 0 1 -7 0 0 1 -7 0 0 2 -3 0 0 1 18 0 0 -1 5 0 0 -2 2 0 0 -1 5 0 0 -1 2 0 0 -2 -5 0 0 2zm73 337l2 0 0 1 3 0 0 1 2 0 0 2 3 0 0 1 4 0 0 2 3 0 0 1 3 0 0 1 4 0 0 -1 2 0 0 -1 1 0 0 -2 1 0 0 -3 -2 0 0 2 -12 0 0 -2 -3 0 0 -1 -2 0 0 -1 -4 0 0 -2 -5 0 0 2zm134 -9l-1 0 0 2 -2 0 0 1 -3 0 0 1 -1 0 0 2 -1 0 0 1 -2 0 0 2 -1 0 0 1 -3 0 0 1 -1 0 0 2 -3 0 0 1 -1 0 0 2 -3 0 0 1 -2 0 0 1 5 0 0 -1 4 0 0 -1 3 0 0 -2 1 0 0 -1 3 0 0 -2 1 0 0 -1 1 0 0 -1 2 0 0 -3 1 0 0 -2 2 0 0 -1 1 0 0 -1 1 0 0 -2 2 0 0 -1 -3 0 0 1zm81 -469l-1 0 0 1 -3 0 0 2 -4 0 0 1 -3 0 0 2 -3 0 0 2 -1 0 0 2 -2 0 0 1 -3 0 0 1 -1 0 0 3 4 0 0 -1 2 0 0 -2 2 0 0 -1 2 0 0 -1 3 0 0 -2 2 0 0 -1 2 0 0 -1 1 0 0 -2 2 0 0 -1 1 0 0 -2 1 0 0 -2 -1 0 0 1zm-60 290l-3 0 0 1 -1 0 0 2 -1 0 0 1 -2 0 0 1 -1 0 0 2 -2 0 0 1 -1 0 0 2 -1 0 0 1 -2 0 0 1 -1 0 0 2 -2 0 0 3 -1 0 0 2 -2 0 0 3 2 0 0 -1 1 0 0 -2 2 0 0 -1 1 0 0 -3 3 0 0 -1 1 0 0 -2 2 0 0 -1 1 0 0 -1 2 0 0 -3 1 0 0 -2 1 0 0 -1 2 0 0 -1 1 0 0 -2 2 0 0 -1 1 0 0 -2 -3 0 0 2zm191 299l-3 0 0 1 -1 0 0 2 -2 0 0 1 -1 0 0 2 -3 0 0 1 -1 0 0 3 -2 0 0 1 -1 0 0 2 -1 0 0 1 -2 0 0 1 -1 0 0 2 -2 0 0 3 2 0 0 -2 3 0 0 -1 1 0 0 -2 1 0 0 -1 3 0 0 -1 1 0 0 -2 2 0 0 -1 1 0 0 -2 2 0 0 -1 1 0 0 -3 1 0 0 -1 2 0 0 -2 1 0 0 -2 -1 0 0 1zm-169 -447l-1 0 0 1 -1 0 0 2 -2 0 0 1 -3 0 0 2 -1 0 0 1 -3 0 0 1 -1 0 0 5 -1 0 0 3 -2 0 0 2 3 0 0 -2 3 0 0 -2 1 0 0 -1 1 0 0 -2 2 0 0 -1 1 0 0 -2 2 0 0 -1 1 0 0 -3 1 0 0 -3 2 0 0 -2 -2 0 0 1zm141 45l1 0 0 3 2 0 0 1 1 0 0 3 2 0 0 1 1 0 0 3 1 0 0 1 2 0 0 3 1 0 0 4 2 0 0 4 2 0 0 -5 -1 0 0 -6 -1 0 0 -3 -2 0 0 -1 -1 0 0 -1 -2 0 0 -2 -1 0 0 -2 -1 0 0 -2 -2 0 0 -1 -1 0 0 -2 -2 0 0 -1 -1 0 0 3zm-28 132l-3 0 0 1 -1 0 0 2 -3 0 0 1 -1 0 0 2 -3 0 0 1 -1 0 0 1 -2 0 0 2 -1 0 0 1 -1 0 0 1 -3 0 0 2 -2 0 0 1 -1 0 0 2 -1 0 0 1 -2 0 0 3 3 0 0 -2 1 0 0 -1 3 0 0 -1 2 0 0 -2 1 0 0 -1 1 0 0 -2 2 0 0 -1 1 0 0 -1 2 0 0 -2 2 0 0 -1 2 0 0 -1 1 0 0 -2 1 0 0 -1 2 0 0 -2 1 0 0 -1zm-110 -196l0 1 -1 0 0 1 -2 0 0 2 -1 0 0 1 -1 0 0 1 -2 0 0 2 -1 0 0 1 -2 0 0 2 -1 0 0 2 -1 0 0 3 -2 0 0 3 -1 0 0 1 -1 0 0 2 2 0 0 -2 2 0 0 -1 1 0 0 -1 1 0 0 -2 2 0 0 -1 1 0 0 -2 2 0 0 -1 1 0 0 -3 1 0 0 -1 2 0 0 -3 1 0 0 -3 2 0 0 -2 -2 0zm96 -124l-1 0 0 2 -1 0 0 2 -2 0 0 1 -1 0 0 3 -2 0 0 1 -1 0 0 2 -1 0 0 1 -2 0 0 1 -1 0 0 3 -2 0 0 2 -1 0 0 2 1 0 0 -1 2 0 0 -1 1 0 0 -2 2 0 0 -1 1 0 0 -2 1 0 0 -1 2 0 0 -1 3 0 0 -2 1 0 0 -2 1 0 0 -2 2 0 0 -3 1 0 0 -1 2 0 0 -3 -5 0 0 2zm-11 2l-3 0 0 2 -1 0 0 1 -2 0 0 2 -1 0 0 1 -1 0 0 1 -2 0 0 2 -1 0 0 1 -2 0 0 1 -1 0 0 2 -1 0 0 1 -2 0 0 2 -1 0 0 1 3 0 0 -1 2 0 0 -2 2 0 0 -1 3 0 0 -2 1 0 0 -1 1 0 0 -1 2 0 0 -2 3 0 0 -2 1 0 0 -2 2 0 0 -1 1 0 0 -3 -3 0 0 1zm57 634l0 2 4 0 0 -2 3 0 0 -1 4 0 0 -2 2 0 0 -1 1 0 0 -1 1 0 0 -2 2 0 0 -1 1 0 0 -2 2 0 0 -1 1 0 0 -2 1 0 0 -1 2 0 0 -1 1 0 0 -2 -3 0 0 2 -1 0 0 1 -1 0 0 1 -2 0 0 2 -3 0 0 1 -1 0 0 2 -1 0 0 1 -3 0 0 2 -3 0 0 1 -3 0 0 1 -1 0 0 2 -1 0 0 1 -2 0zm-523 -342l-3 0 0 1 -1 0 0 1 -3 0 0 2 -2 0 0 1 -2 0 0 2 -2 0 0 1 -2 0 0 3 -1 0 0 1 -1 0 0 2 2 0 0 -2 2 0 0 -1 3 0 0 -2 1 0 0 -1 2 0 0 -1 3 0 0 -2 2 0 0 -1 2 0 0 -2 2 0 0 -1 2 0 0 -1 3 0 0 -2 -7 0 0 2zm346 402l-1 0 0 6 1 0 0 4 2 0 0 2 3 0 0 -12 -2 0 0 -10 -1 0 0 -1 -2 0 0 11zm-252 -272l4 0 0 2 6 0 0 1 9 0 0 2 4 0 0 1 4 0 0 1 3 0 0 -1 -2 0 0 -1 -3 0 0 -2 -2 0 0 -1 -3 0 0 -2 -3 0 0 -1 -17 0 0 1zm217 225l-2 0 0 1 -5 0 0 2 -1 0 0 1 -1 0 0 1 -3 0 0 2 -1 0 0 1 -2 0 0 1 -1 0 0 2 3 0 0 -2 2 0 0 -1 6 0 0 -1 3 0 0 -2 2 0 0 -1 2 0 0 -6 -2 0 0 2zm-117 -454l-1 0 0 1 -3 0 0 1 -1 0 0 2 -3 0 0 1 -1 0 0 2 -2 0 0 1 -2 0 0 1 -3 0 0 2 -2 0 0 1 -2 0 0 2 5 0 0 -2 4 0 0 -1 2 0 0 -2 1 0 0 -1 3 0 0 -1 1 0 0 -2 2 0 0 -1 1 0 0 -2 1 0 0 -1 2 0 0 -1 1 0 0 -2 -3 0 0 2zm354 381l-1 0 0 2 -3 0 0 1 -1 0 0 3 -3 0 0 1 -2 0 0 2 -1 0 0 1 -1 0 0 1 -2 0 0 2 -1 0 0 1 -1 0 0 3 1 0 0 -2 3 0 0 -1 2 0 0 -1 2 0 0 -2 1 0 0 -1 2 0 0 -1 1 0 0 -3 1 0 0 -2 2 0 0 -1 1 0 0 -1 2 0 0 -3 -2 0 0 1zm-202 -289l-1 0 0 1 -3 0 0 1 -1 0 0 2 -2 0 0 1 -1 0 0 2 -2 0 0 1 -1 0 0 3 -1 0 0 1 -2 0 0 3 -1 0 0 3 1 0 0 -2 2 0 0 -1 1 0 0 -1 1 0 0 -2 2 0 0 -1 1 0 0 -2 2 0 0 -1 1 0 0 -3 2 0 0 -1 1 0 0 -2 1 0 0 -1 2 0 0 -1 1 0 0 -2 -3 0 0 2zm230 387l1 0 0 1 2 0 0 2 4 0 0 -5 -1 0 0 -2 -2 0 0 -5 -1 0 0 -4 -2 0 0 -3 -1 0 0 16zm-86 -337l-3 0 0 1 -3 0 0 1 -1 0 0 2 -1 0 0 1 -2 0 0 2 -3 0 0 1 -1 0 0 1 -1 0 0 2 -2 0 0 1 -1 0 0 2 3 0 0 -2 2 0 0 -1 2 0 0 -2 3 0 0 -1 2 0 0 -1 2 0 0 -2 1 0 0 -1 1 0 0 -2 2 0 0 -1 1 0 0 -3 -1 0 0 2zm-37 -335l-2 0 0 2 -2 0 0 1 -1 0 0 2 -2 0 0 1 -2 0 0 1 -2 0 0 2 -1 0 0 2 -1 0 0 2 2 0 0 -2 3 0 0 -1 1 0 0 -1 2 0 0 -2 3 0 0 -1 1 0 0 -1 1 0 0 -2 2 0 0 -1 1 0 0 -3 -3 0 0 1zm-73 259l-3 0 0 2 -3 0 0 1 -1 0 0 2 -2 0 0 1 -1 0 0 4 3 0 0 -1 3 0 0 -2 1 0 0 -1 3 0 0 -1 1 0 0 -2 2 0 0 -3 1 0 0 -1 -4 0 0 1zm197 -204l-1 0 0 10 1 0 0 -2 2 0 0 -4 1 0 0 -17 -1 0 0 -1 -2 0 0 14zm37 79l-2 0 0 4 -1 0 0 4 -1 0 0 6 -2 0 0 4 -1 0 0 3 1 0 0 -1 2 0 0 -3 1 0 0 -3 1 0 0 -3 2 0 0 -5 1 0 0 -10 -1 0 0 4zm-134 -121l0 -2 2 0 0 -1 1 0 0 -1 1 0 0 -2 2 0 0 -2 1 0 0 -3 1 0 0 -3 2 0 0 -6 -2 0 0 2 -1 0 0 3 -1 0 0 1 -2 0 0 3 -1 0 0 3 -1 0 0 2 -2 0 0 3 -1 0 0 3 1 0zm-390 184l-4 0 0 1 -3 0 0 2 -4 0 0 1 -3 0 0 1 -1 0 0 2 -2 0 0 1 3 0 0 -1 4 0 0 -2 3 0 0 -1 4 0 0 -1 3 0 0 -2 6 0 0 -1 1 0 0 -2 -7 0 0 2zm-134 287l-2 0 0 1 -2 0 0 1 -3 0 0 2 -1 0 0 1 -1 0 0 2 -3 0 0 4 3 0 0 -2 2 0 0 -1 2 0 0 -1 3 0 0 -2 1 0 0 -1 1 0 0 -2 2 0 0 -4 -2 0 0 2zm216 -365l-3 0 0 1 -4 0 0 2 -2 0 0 1 -3 0 0 1 -2 0 0 2 5 0 0 -2 4 0 0 -1 4 0 0 -1 4 0 0 -2 4 0 0 -1 2 0 0 -2 -9 0 0 2zm224 54l-1 0 0 2 -3 0 0 4 -1 0 0 11 1 0 0 -1 2 0 0 -5 1 0 0 -4 1 0 0 -4 2 0 0 -4 -2 0 0 1zm94 -191l-2 0 0 2 -2 0 0 1 -3 0 0 1 -3 0 0 2 -1 0 0 1 -3 0 0 2 -1 0 0 2 2 0 0 -1 3 0 0 -1 3 0 0 -2 3 0 0 -1 1 0 0 -2 1 0 0 -1 2 0 0 -1 1 0 0 -2 2 0 0 -1 -3 0 0 1zm-114 347l-2 0 0 1 -3 0 0 3 -1 0 0 2 -1 0 0 1 -2 0 0 3 -1 0 0 4 1 0 0 -1 2 0 0 -2 1 0 0 -1 1 0 0 -2 2 0 0 -2 1 0 0 -2 2 0 0 -1 1 0 0 -3 1 0 0 -3 -2 0 0 3zm-247 32l2 0 0 8 1 0 0 2 1 0 0 -6 -1 0 0 -15 -1 0 0 -7 -2 0 0 18zm322 125l-2 0 0 2 -1 0 0 3 -2 0 0 1 -1 0 0 3 -1 0 0 1 -2 0 0 3 -1 0 0 1 -1 0 0 2 2 0 0 -2 2 0 0 -1 1 0 0 -2 1 0 0 -1 2 0 0 -1 1 0 0 -2 2 0 0 -4 1 0 0 -3 1 0 0 -1 -2 0 0 1zm62 -196l2 0 0 3 1 0 0 1 2 0 0 3 1 0 0 2 1 0 0 1 2 0 0 1 1 0 0 2 2 0 0 -3 -2 0 0 -3 -1 0 0 -1 -2 0 0 -3 -1 0 0 -1 -1 0 0 -3 -2 0 0 -3 -1 0 0 -4 -2 0 0 8zm-202 226l-1 0 0 1 -1 0 0 2 -2 0 0 1 -1 0 0 3 -2 0 0 1 -1 0 0 3 3 0 0 -1 3 0 0 -2 1 0 0 -3 1 0 0 -1 2 0 0 -3 1 0 0 -1 2 0 0 -2 -5 0 0 2zm-62 -217l-1 0 0 4 -2 0 0 7 -1 0 0 4 -2 0 0 7 2 0 0 -3 1 0 0 -6 2 0 0 -4 1 0 0 -4 1 0 0 -7 -1 0 0 2zm269 -225l-2 0 0 2 -1 0 0 2 -2 0 0 3 -1 0 0 3 -1 0 0 1 -2 0 0 5 2 0 0 -2 1 0 0 -1 1 0 0 -2 2 0 0 -2 1 0 0 -3 2 0 0 -3 1 0 0 -3 1 0 0 -2 -2 0 0 2zm-56 -90l-2 0 0 4 -1 0 0 1 -1 0 0 3 8 0 0 -1 4 0 0 -2 2 0 0 -1 -10 0 0 -3 1 0 0 -3 -1 0 0 2zm-455 285l-3 0 0 2 -2 0 0 1 -1 0 0 2 -1 0 0 1 -2 0 0 1 -1 0 0 2 -1 0 0 3 -2 0 0 1 3 0 0 -1 1 0 0 -2 2 0 0 -1 1 0 0 -2 1 0 0 -1 2 0 0 -1 1 0 0 -2 2 0 0 -1 2 0 0 -2 2 0 0 -1 -4 0 0 1zm107 42l-1 0 0 1 -3 0 0 2 -3 0 0 1 -3 0 0 2 -2 0 0 1 -1 0 0 1 -1 0 0 2 2 0 0 -2 3 0 0 -1 3 0 0 -1 3 0 0 -2 3 0 0 -1 1 0 0 -2 2 0 0 -2 -3 0 0 1zm67 93l1 0 0 3 1 0 0 2 2 0 0 4 1 0 0 1 1 0 0 -4 -1 0 0 -6 -1 0 0 -4 -2 0 0 -3 -1 0 0 -1 -1 0 0 8zm261 -402l-2 0 0 1 -2 0 0 2 -3 0 0 1 -1 0 0 1 -1 0 0 3 -2 0 0 1 -3 0 0 3 2 0 0 -1 3 0 0 -2 1 0 0 -1 3 0 0 -1 1 0 0 -2 2 0 0 -1 1 0 0 -1 1 0 0 -2 2 0 0 -3 -2 0 0 2zm177 153l-1 0 0 6 -1 0 0 8 1 0 0 -1 1 0 0 -3 2 0 0 -8 1 0 0 -5 -3 0 0 3zm-75 408l-1 0 0 1 -2 0 0 2 -1 0 0 1 -2 0 0 2 -1 0 0 1 -1 0 0 3 -2 0 0 3 3 0 0 -2 1 0 0 -3 2 0 0 -1 1 0 0 -1 2 0 0 -2 1 0 0 -1 1 0 0 -2 2 0 0 -2 -3 0 0 1zm-182 131l1 0 0 -1 2 0 0 -12 -2 0 0 -4 -3 0 0 9 2 0 0 8zm182 -143l-1 0 0 1 -3 0 0 1 -2 0 0 3 -1 0 0 2 -1 0 0 4 2 0 0 -3 2 0 0 -1 1 0 0 -2 2 0 0 -1 1 0 0 -2 1 0 0 -1 2 0 0 -3 -3 0 0 2zm-161 -212l-2 0 0 1 -1 0 0 2 -2 0 0 1 -1 0 0 1 -1 0 0 2 -2 0 0 1 -1 0 0 3 -2 0 0 1 3 0 0 -1 2 0 0 -1 1 0 0 -2 1 0 0 -1 2 0 0 -2 1 0 0 -1 2 0 0 -1 1 0 0 -5 -1 0 0 2zm4 14l-3 0 0 1 -1 0 0 1 -2 0 0 3 -1 0 0 2 -2 0 0 2 3 0 0 -1 2 0 0 -1 1 0 0 -2 1 0 0 -1 2 0 0 -3 1 0 0 -1 2 0 0 -3 -3 0 0 3zm-119 0l-1 0 0 4 -1 0 0 4 -2 0 0 4 -1 0 0 3 3 0 0 -3 1 0 0 -3 1 0 0 -5 2 0 0 -6 -2 0 0 2zm-29 39l2 0 0 7 1 0 0 3 1 0 0 -7 -1 0 0 -9 -1 0 0 -7 -2 0 0 13zm291 -327l-1 0 0 1 -2 0 0 3 -1 0 0 4 -1 0 0 4 1 0 0 -1 1 0 0 -3 2 0 0 -3 1 0 0 -3 2 0 0 -5 -2 0 0 3zm14 579l-3 0 0 1 -1 0 0 2 -2 0 0 1 -1 0 0 3 3 0 0 -1 1 0 0 -2 3 0 0 -1 1 0 0 -2 2 0 0 -1 1 0 0 -1 -4 0 0 1zm-146 -496l-3 0 0 1 -1 0 0 9 1 0 0 -1 1 0 0 -3 2 0 0 -2 1 0 0 -5 -1 0 0 1zm-481 441l-1 0 0 2 -1 0 0 1 -3 0 0 2 -2 0 0 1 -1 0 0 1 -1 0 0 2 2 0 0 -2 2 0 0 -1 3 0 0 -1 1 0 0 -2 3 0 0 -1 1 0 0 -2 2 0 0 -1 -5 0 0 1zm226 -275l-1 0 0 8 -2 0 0 4 3 0 0 -4 1 0 0 -10 -1 0 0 2zm238 135l-1 0 0 1 -2 0 0 2 -1 0 0 2 -1 0 0 3 1 0 0 -1 1 0 0 -2 3 0 0 -1 2 0 0 -3 1 0 0 -3 -3 0 0 2zm-7 19l-1 0 0 2 -2 0 0 1 -1 0 0 1 -1 0 0 3 2 0 0 -1 3 0 0 -2 2 0 0 -2 1 0 0 -3 -3 0 0 1zm166 -413l-2 0 0 4 -1 0 0 4 3 0 0 -3 1 0 0 -7 2 0 0 -2 -3 0 0 4zm-169 109l-1 0 0 1 -1 0 0 1 -2 0 0 2 -1 0 0 2 3 0 0 -1 2 0 0 -3 2 0 0 -2 1 0 0 -3 -3 0 0 3zm35 72l-1 0 0 11 3 0 0 -13 -2 0 0 2zm138 303l-3 0 0 2 -1 0 0 1 -2 0 0 2 -1 0 0 4 1 0 0 -2 2 0 0 -1 1 0 0 -1 2 0 0 -2 1 0 0 -1 1 0 0 -2 2 0 0 -1 -3 0 0 1zm-28 84l-1 0 0 4 -2 0 0 7 3 0 0 -7 2 0 0 -6 -2 0 0 2zm-406 -210l1 0 0 1 2 0 0 2 2 0 0 2 4 0 0 -1 -1 0 0 -1 -1 0 0 -2 -2 0 0 -1 -1 0 0 -2 -1 0 0 -1 -3 0 0 3zm362 -126l-2 0 0 2 -1 0 0 1 -1 0 0 2 -2 0 0 2 3 0 0 -1 1 0 0 -1 2 0 0 -2 1 0 0 -1 2 0 0 -3 -3 0 0 1zm-101 -105l-1 0 0 2 -1 0 0 3 1 0 0 2 1 0 0 -2 2 0 0 -4 1 0 0 -4 -3 0 0 3zm147 480l1 0 0 1 1 0 0 -11 -2 0 0 10zm-80 -174l-1 0 0 1 -2 0 0 2 -1 0 0 1 -1 0 0 3 2 0 0 -2 2 0 0 -1 1 0 0 -1 2 0 0 -3 1 0 0 -2 -3 0 0 2zm-51 -220l-3 0 0 1 -1 0 0 5 1 0 0 -2 3 0 0 -1 1 0 0 -2 2 0 0 -1 1 0 0 -2 -4 0 0 2zm-218 134l2 0 0 2 1 0 0 2 2 0 0 -7 -2 0 0 -2 -1 0 0 -1 -2 0 0 6zm325 -403l-1 0 0 4 1 0 0 -1 1 0 0 -4 2 0 0 -5 -3 0 0 6zm-397 414l-1 0 0 1 8 0 0 -1 1 0 0 -2 -8 0 0 2zm281 65l-1 0 0 1 -1 0 0 5 -2 0 0 2 2 0 0 -1 1 0 0 -3 1 0 0 -3 2 0 0 -2 -2 0 0 1zm247 -299l-2 0 0 5 2 0 0 -2 1 0 0 -6 2 0 0 -1 -3 0 0 4zm-56 -141l1 0 0 3 2 0 0 -9 -3 0 0 6zm-170 181l-1 0 0 8 1 0 0 -5 2 0 0 -6 -2 0 0 3zm-246 66l-2 0 0 1 -1 0 0 6 -1 0 0 2 1 0 0 -1 1 0 0 -4 2 0 0 -4zm-80 136l-2 0 0 1 -2 0 0 2 4 0 0 -2 3 0 0 -1 1 0 0 -1 -4 0 0 1zm154 -93l-2 0 0 8 2 0 0 -6 1 0 0 -4 -1 0 0 2zm172 -200l-1 0 0 5 3 0 0 -3 1 0 0 -3 -3 0 0 1zm71 143l-1 0 0 3 3 0 0 -2 1 0 0 -4 -3 0 0 3zm-312 128l2 0 0 1 3 0 0 -3 -2 0 0 -2 -3 0 0 4zm470 -194l1 0 0 -1 1 0 0 -6 -2 0 0 7zm-170 159l-3 0 0 3 -2 0 0 1 3 0 0 -1 2 0 0 -2 1 0 0 -3 -1 0 0 2zm44 -281l-1 0 0 1 -1 0 0 1 -2 0 0 3 2 0 0 -1 1 0 0 -2 1 0 0 -1 2 0 0 -3 -2 0 0 2zm-107 119l-1 0 0 6 1 0 0 -3 1 0 0 -4 -1 0 0 1zm168 -172l-1 0 0 2 3 0 0 -7 -2 0 0 5zm-73 55l-2 0 0 3 3 0 0 -1 2 0 0 -3 -3 0 0 1zm22 -140l3 0 0 -4 -3 0 0 4zm-579 270l1 0 0 1 1 0 0 2 3 0 0 -2 -1 0 0 -1 -2 0 0 -1 -2 0 0 1zm254 203l2 0 0 3 1 0 0 1 2 0 0 -2 -2 0 0 -3 -3 0 0 1zm83 -16l-2 0 0 -2 -1 0 0 4 3 0 0 -2zm-274 229l-2 0 0 3 3 0 0 -4 -1 0 0 1zm508 -639l1 0 0 -1 2 0 0 -3 -3 0 0 4zm-142 702l0 3 3 0 0 -4 -2 0 0 1 -1 0zm-195 -77l1 0 0 2 1 0 0 -5 -2 0 0 3zm324 -299l3 0 0 -1 1 0 0 -3 -1 0 0 1 -1 0 0 2 -2 0 0 1zm-196 -91l-2 0 0 2 -1 0 0 1 3 0 0 -1 1 0 0 -3 -1 0 0 1zm264 -214l-1 0 0 3 3 0 0 -5 -2 0 0 2zm-47 -74l3 0 0 -3 -3 0 0 3zm-54 436l-2 0 0 1 3 0 0 -1 1 0 0 -1 -2 0 0 1zm-379 45l3 0 0 -3 -3 0 0 3zm290 66l2 0 0 -2 -2 0 0 2zm0 0l-2 0 0 2 -1 0 0 3 1 0 0 -2 2 0 0 -3zm-91 135l-1 0 0 -1 -2 0 0 3 3 0 0 -2zm-302 -162l1 0 0 -3 -3 0 0 1 2 0 0 2zm407 -336l1 0 0 -3 -3 0 0 2 2 0 0 1zm110 181l1 0 0 -3 -3 0 0 2 2 0 0 1zm-179 110l-1 0 0 -1 -2 0 0 3 3 0 0 -2zm21 -248l1 0 0 -2 -2 0 0 1 1 0 0 1zm-404 396l2 0 0 -3 -3 0 0 1 1 0 0 2zm410 -525l-2 0 0 -2 -1 0 0 3 3 0 0 -1zm42 -26l-2 0 0 -1 -1 0 0 3 3 0 0 -2zm97 2l-1 0 0 -2 -2 0 0 3 3 0 0 -1zm-173 625l2 0 0 -2 -3 0 0 1 1 0 0 1zm177 -280l2 0 0 -1 1 0 0 -2 -3 0 0 3zm-16 -19l-2 0 0 -2 -1 0 0 3 3 0 0 -1zm-3 -359l1 0 0 -2 2 0 0 -1 -3 0 0 3zm60 656l-2 0 0 -2 -1 0 0 3 3 0 0 -1zm-166 -442l1 0 0 -3 -2 0 0 2 1 0 0 1z"/>
 </g>
</svg>
